<svg id="cone" xmlns="http://www.w3.org/2000/svg" viewBox="0 0 453.6 453.6">
<path d="M319.2,206.4c0-0.1,0-0.1,0-0.1c-0.2-1.4-0.5-2.7-0.8-4c0-0.2-0.1-0.4-0.1-0.6c-0.4-1.3-0.8-2.5-1.3-3.7
	c-0.3-0.7-0.6-1.3-0.9-2c-0.2-0.4-0.4-0.8-0.6-1.2c-3-5.7-7.6-10.6-13.5-13.9l0,0c-0.1-0.1-0.2-0.1-0.4-0.2
	c-2.6-1.2-5.9-2.7-9.5-4.1c9.9-6.4,16.4-17.5,16.4-30.1c0-15.8-10.2-29.2-24.5-34c1.2-1.1,2.5-2.2,3.5-3.4c0,0,0.1,0,0.1,0.1
	c2.6-2.9,4.7-6.3,6.1-9.9c7.1-17.6-1.4-37.7-19-44.8l-0.8-0.3c-5-1.9-34.1-13.1-34.1-13.1c-9.9-3.9-16.4-13.3-16.4-24
	c0-3.4,0.7-6.7,2-9.9l2-4.8l-5-1c-3.1-0.6-6.2-0.9-9.3-0.9c-25.7,0-46.5,20.9-46.5,46.5c0,11,3.9,21.3,10.6,29.5
	c-2.5,0.3-4.9,1-7.2,1.8c0,0,0,0,0,0c-0.2,0.1-0.4,0.2-0.6,0.3c-1.4,0.6-2.7,1.2-4,1.9c-0.1,0.1-0.2,0.1-0.3,0.2
	c-10.4,5.9-17.4,17-17.4,29.8c0,1.8,0.2,3.6,0.5,5.4c0,0.1,0,0.2,0.1,0.3c0.3,1.7,0.7,3.3,1.2,4.9c0,0.1,0,0.1,0.1,0.2
	c0.5,1.5,1.1,2.9,1.8,4.3c0.2,0.5,0.5,1,0.8,1.5c0.4,0.8,0.9,1.5,1.3,2.2c0.4,0.7,0.9,1.4,1.4,2c0,0,0.1,0.1,0.1,0.1
	c1.4,1.9,3.1,3.6,4.9,5.2l0,0c-2.7,0.4-5.2,1.2-7.7,2.2c-0.1-0.1-0.1-0.1-0.1-0.1c-2.1,0.9-4,2.1-5.8,3.4c-0.3,0.2-0.6,0.4-0.9,0.6
	c-0.8,0.6-1.6,1.2-2.3,1.8c-0.9,0.8-1.8,1.7-2.7,2.6c-0.1,0.1-0.2,0.2-0.3,0.3c-5.5,6.1-8.9,14.1-8.9,22.9c0,11,5.2,20.8,13.3,27
	c-11.9,5.4-20.2,17.3-20.2,31.2c0,10.8,5,20.5,12.9,26.7l9.7,74.1l23.6,7.3l12.6,116.8h87.2l12.6-116.8l23.6-7.3l9.6-73.2l0.2-1.7
	c-0.9-7.3-7.5-11.4-13.7-13.9c9.1-5.4,15.5-14.9,16.6-26c0,0,0-0.1,0-0.1c0.1-1.1,0.2-2.2,0.2-3.3
	C319.6,209.5,319.4,207.9,319.2,206.4z M262.7,444.9h-72l-11.6-107.3h95.1L262.7,444.9z M306.7,262.9l-7.9,59.9l-20.5,6.3H175.1
	l-20.5-6.3l-7.9-59.9H306.7z"/>
</svg>
