<svg id="cooler-bag" viewBox="0 0 202.5 258.27" xmlns="http://www.w3.org/2000/svg">
  <path d="M63,215.87c0,1.9,.9,3.6,2.5,4.6-.7-.1-1.4-.2-2.2-.2v3.6c1,.1,2,.3,5.9,1l13.3,2.2v-3.7l-11.8-2c-3.3-.6-4.5-1.6-4.5-3.5s1.3-2.1,3.4-1.8l12.8,2.2v-3.7l-13.6-2.3c-4-.8-5.8,.7-5.8,3.6Z"/>
  <path d="M72.8,196.27c-6.4-1.1-9.8,.7-9.8,4.9s3.1,7.4,9.9,8.5,10.1-.6,10.1-4.9-3.3-7.4-10.2-8.5Zm0,9.7c-4.5-.8-6.5-2-6.5-4.1s2.1-2.6,6.6-1.8,6.8,2,6.8,4c0,2-2.3,2.6-6.9,1.9Z"/>
  <path d="M63.4,191.67c1.4,.2,3.4,.5,6.5,1.1l12.7,2.1v-3.7l-10.3-1.8c-3.6-.6-4.9-2.5-4.9-5.5l-4.3-.7c0,2.4,1.4,4.5,3.6,5.4-2-.3-2.9-.4-3.3-.4v3.5Z"/>
  <path d="M69.5,165.07l13.2,2.2v-3.7l-13.8-2.3c-4.4-.7-5.7,1.1-5.7,3.6,0,2,1,3.9,2.7,4.9-1.8,.3-2.7,1.3-2.7,3.3,0,1.8,.9,3.5,2.4,4.4-.7-.1-1.4-.2-2.1-.2v3.5c.9,.1,2.1,.3,5.8,1l13.5,2.2v-3.7l-12-2c-2.7-.5-4.2-1.5-4.2-3.3,0-1.5,1.1-2,3-1.6l13.2,2.2v-3.7l-12.1-2c-2.5-.4-4.1-1.3-4.1-3.3-.1-1.5,1.2-1.7,2.9-1.5Z"/>
  <path d="M80.8,151.47c.7,.1,1.3,.2,2,.1v-3.3c-.8-.1-2.9-.4-4-.5l-10.2-1.7c-3.6-.6-5.5,1-5.5,4.8,0,4.7,3,6.5,5.7,7v-3.5c-1.3-.3-2.8-.8-2.7-2.8,0-2.1,1.5-2,2.8-1.8l2.3,.4c0,.4,0,1-.1,1.6,0,4.7,2.4,7.6,6.2,8.2,2.7,.5,5.7-.4,5.7-3.9,.2-1.8-.7-3.5-2.2-4.6Zm-3.7,4.8c-1.8-.3-3.1-1.6-3.1-4.2,0-.5,0-1,.1-1.5l.8,.1c3.3,.6,5,1.4,5,3.7,0,1.7-1.4,2.1-2.8,1.9Z"/>
  <polygon points="82.8 140.67 56.2 136.27 56.2 139.97 82.8 144.47 82.8 140.67"/>
  <polygon points="94.4 228.97 113.6 232.17 113.6 228.47 94.4 225.27 94.4 228.97"/>
  <polygon points="87 227.67 91.3 228.37 91.3 224.67 87 223.97 87 227.67"/>
  <path d="M107.4,211.67v3.6c1.1,.3,3.4,.9,3.4,3.1,0,2-2.5,2.4-6.8,1.6-4.1-.7-6.6-1.8-6.6-4s2.4-1.9,3.2-1.8v-3.8c-1.1-.2-6.4-.9-6.4,4.9,0,5,4.6,7.4,9.8,8.3,5.7,1,10.1,.4,10.1-4.7-.1-5.7-5.4-6.9-6.7-7.2Z"/>
  <path d="M108,196.57v3.6c.6,.2,2.8,.9,2.8,3.2,0,2.5-3,2.5-5.8,2v-9.3c-.4-.1-1.2-.3-1.8-.4-4.9-.8-9.1-.3-9.1,4.9,0,4.5,3.7,7.3,9.9,8.3,4.8,.8,10.1,.9,10.1-4.9s-5.5-7.2-6.1-7.4Zm-5.9,8.2c-1.4-.3-4.8-1-4.8-3.7,0-2.4,2.5-2.3,4.8-2v5.7Z"/>
  <path d="M107.5,181.27v3.6c1.1,.3,3.4,.9,3.4,3.1,0,2-2.5,2.4-6.8,1.6-4.1-.7-6.6-1.8-6.6-4s2.4-1.8,3.2-1.8v-3.8c-1.1-.2-6.4-.9-6.4,4.9,0,5,4.6,7.4,9.8,8.3,5.7,1,10.1,.4,10.1-4.7-.1-5.7-5.4-6.9-6.7-7.2Z"/>
  <path d="M94.5,176.37c1.4,.2,3.4,.5,6.5,1.1l12.7,2.1v-3.7l-10.3-1.7c-3.6-.6-4.9-2.5-4.9-5.5l-4.3-.7c0,2.4,1.4,4.5,3.5,5.4-1.1-.2-2.2-.4-3.3-.4l.1,3.4Z"/>
  <path d="M108.1,155.77v3.6c.6,.2,2.8,.9,2.8,3.2,0,2.5-3,2.4-5.8,2v-9.3c-.4-.1-1.2-.3-1.8-.4-4.9-.8-9.1-.3-9.1,4.9,0,4.5,3.7,7.3,9.9,8.3,4.8,.8,10.1,.9,10.1-4.9,0-5.7-5.5-7.2-6.1-7.4Zm-5.9,8.3c-1.4-.3-4.8-1-4.8-3.7,0-2.4,2.5-2.3,4.8-2v5.7Z"/>
  <path d="M100.1,151.57v-3.5c-1.3-.3-2.8-.8-2.8-2.8s1.5-2,2.8-1.8l2.2,.4v1.6c0,4.7,2.5,7.6,6.2,8.2,2.7,.5,5.7-.4,5.7-4,.1-1.8-.7-3.6-2.2-4.6,.7,.1,1.3,.2,2,.1v-3.4c-.8-.1-2.9-.4-4-.5l-10.2-1.7c-3.6-.6-5.5,1-5.5,4.8,0,4.9,3,6.6,5.8,7.2Zm5.2-7.4l.8,.1c3.3,.5,5,1.4,5,3.7,0,1.7-1.4,2.1-2.8,1.9-1.8-.3-3.1-1.5-3.1-4.2-.1-.5-.1-1,.1-1.5h0Z"/>
  <path d="M94.4,127.17c0,1.8,.9,3.5,2.5,4.5-.7-.1-1.4-.2-2.1-.2v3.5c.9,.1,2.1,.3,5.8,1l13.5,2.3v-3.7l-12-2c-2.7-.4-4.2-1.5-4.2-3.3,0-1.5,1.1-2,3-1.6l13.2,2.2v-3.7l-12.2-2c-2.5-.4-4.1-1.3-4.1-3.2,0-1.7,1.3-2,3-1.7l13.3,2.2v-3.6l-13.8-2.4c-4.4-.7-5.7,1.1-5.7,3.6,0,2,1,3.9,2.7,4.9-2,.1-2.9,1.2-2.9,3.2Z"/>
  <path d="M201.7,102.97c-.8-1.8-2.3-3.3-4.2-4l-16.4-3.9c-1.5-4.9-3.6-9.6-6.2-14l-1.6-2.6-7.2-1v-9.9c0-30.9-24.6-60.7-54.7-66.6-4.8-.9-9.8-1.2-14.6-.8-12.5-1-24.1,2.3-33.1,9.8-10.5,8.7-16.3,21.7-16.3,36.7v13.7l-16-2.3c0,.1-1.4,3-3.2,7.9L0,76.17l3.8,10,19.9-7.2c-3.8,12.3-7.5,28.4-7.5,44.2,0,31.4-1.2,108.7-1.3,109.5v.7l.5,.1,142.5,24.8,33.5-43.6-3.2-82.5c-.6-7.7-1.6-15.3-3.1-22.8l7.2,3.7,.2,.1c3.9,1.4,8.2-.6,9.7-4.5h0c.5-1.9,.4-4-.5-5.7h0Zm-31.6-7.9l6.7,2.5-1.2,3.3v.1l-6.6-2.5c.3-1.2,.7-2.4,1.1-3.4h0Zm6.8-1.3l-5.5-2c.9-2.3,1.6-4.2,2.2-5.7,1.2,2.5,2.3,5.1,3.3,7.7h0Zm-39.2,157l-9.6-1.6c.1-7.8,1.2-79,1.2-108.8,0-18.7,5.4-37.9,9.7-50.2l9.6,1.3c-4.4,12.6-9.9,32.2-9.9,51.2,.2,29.1-.9,97.8-1,108.1Zm3.7-176.9l-69.4-10v-20.2c0-16.9,10.6-29.8,26.3-32.1,.1,0,.3-.1,.4-.1,1.1,.1,2.2,.3,3.4,.5,21.7,4.2,39.3,25.6,39.3,47.6v14.3ZM63.5,41.77c0-.3,0-.7,.1-1s0-.5,.1-.8c0-.4,.1-.9,.2-1.3,0-.1,0-.3,.1-.4,.1-.5,.2-1,.3-1.5v-.2c.1-.5,.2-1.1,.4-1.6h0c1.4-6,4.5-11.5,9.1-15.7,3.1-2.9,6.9-5,10.9-6.4-10,6.2-16.1,17.4-16.1,30.9v19.7l-4.9-.7v-19c-.2-.7-.2-1.3-.2-2Zm-3.4,24c-.8,2-2,4.9-3.3,8.6l-9.7-1.3c1.4-3.8,2.6-6.7,3.4-8.7l9.6,1.4Zm-14.2,10.7l9.7,1.3c-4.3,12.7-9.4,31.5-9.4,50,0,28.3-1,93.8-1.2,107.1l-9.5-1.6c.2-11.7,1.2-79,1.2-107.8-.1-18,4.8-36.3,9.2-49Zm3.8,51.4c0-26.4,10.8-53.9,14-61.6l76.5,11c-3.3,7.8-14.4,35.9-14.4,63,0,29.2-1.1,98.2-1.2,108.2l-76.2-13c.2-11.9,1.2-79,1.3-107.6h0Zm100.3-39.8l-9.6-1.3c1.5-4.2,2.9-7.3,3.5-8.9l9.6,1.4c-.8,1.7-2.1,4.8-3.5,8.8h0Zm12.5-20.5v9.3l-4.9-.7v-8.6c0-.9,0-1.8-.1-2.6v-.8c0-.6-.1-1.2-.1-1.9l-.1-.9c-.1-.6-.1-1.2-.2-1.8,0-.3-.1-.5-.1-.8-.3-1.7-.6-3.5-1-5.2-.1-.3-.1-.5-.2-.8l-.5-1.8c-.1-.3-.2-.6-.2-.9-.2-.6-.4-1.2-.6-1.8-.1-.3-.2-.5-.2-.8-.6-1.7-1.2-3.3-1.9-4.9-.1-.2-.2-.5-.3-.7-.3-.6-.5-1.2-.8-1.8l-.4-.8c-.3-.6-.6-1.1-.9-1.7-.1-.2-.2-.5-.4-.7-.8-1.6-1.8-3.1-2.7-4.6l-.4-.6-1.1-1.6-.5-.7c-.4-.5-.8-1.1-1.2-1.6l-.4-.6c-1.1-1.4-2.2-2.8-3.4-4.2l-.5-.6c-.4-.5-.9-1-1.3-1.4l-.6-.6c-.5-.5-.9-.9-1.4-1.4l-.5-.5c-1.3-1.2-2.7-2.4-4-3.5l-.6-.5-1.5-1.2-.7-.5c-.5-.4-1-.7-1.5-1.1-.2-.2-.4-.3-.7-.5-.7-.5-1.5-1-2.2-1.5h0c-.7-.5-1.5-.9-2.2-1.3l-.8-.4-1-.5c23.8,9.1,42.1,34.2,42.1,60.1h0ZM50.8,46.67c0-13.9,5.3-26,15-33.9,8.3-6.9,19.1-10,30.7-9h0c1.9,.2,3.7,.4,5.6,.8,28.6,5.6,51.9,33.8,51.9,63v8.2l-9.1-1.3v-14.9c0-23.7-18.9-46.6-42.2-51.1-11.4-2.2-22.2,.2-30.3,6.9-6.2,5.2-10.4,12.4-11.8,20.4v.2c-.1,.6-.2,1.1-.3,1.7,0,.1,0,.3-.1,.4-.1,.5-.1,1-.2,1.5,0,.3,0,.6-.1,.9-.1,.4-.1,.8-.1,1.1v20.5l-9.1-1.5,.1-13.9ZM5.7,81.67l-1.3-3.4,22-8c-.5,1.4-1,2.9-1.5,4.4l-19.2,7Zm27.8-19.7l13.4,2c-1,2.3-2.3,5.8-3.8,10.1-4.6,12.9-9.9,32.3-9.9,51.5,0,28.3-1,94.1-1.2,107.2l-13.6-2.3c.3-13.2,1.2-78.9,1.2-107.1,0-26.3,10.5-53.4,13.9-61.4h0Zm122.9,84.5c0,28.5-1,94.8-1.2,107.4l-14-2.4c.1-8.2,1.2-79,1.2-108.7s12.4-58,14.6-62.9l14.4,2.1c-2,4.3-15,35-15,64.5h0Zm2.4,104.6c.3-17.6,1.2-77.8,1.2-104.6,0-16,4-32.5,7.8-44.6l7.5,2.8,5.4,2.8c1.8,8.2,3.1,16.6,3.7,25l3.1,81.2-28.7,37.4Zm39.8-143.6c-.8,2-3,3.1-5,2.4h0l-14.8-7.5,1.4-3.9,2.1,.5h0l14,3.4c2.1,.8,3.1,3.1,2.3,5.1h0Z"/>
</svg>
