<svg id="pints" xmlns="http://www.w3.org/2000/svg" viewBox="0 0 105.1 127.3">
  <path d="M10.8,7.6C9.5,7.3,8.3,6.6,7.2,5.9L6.6,4.7l1.1-1.5C8.1,3,17.5-0.7,53.1-0.1s43.9,4.3,44.2,4.5l1,1.7l-0.7,1.2
    c-0.6,0.4-6.7,4.3-45.3,4.1C27,11.2,15.7,9.2,10.8,7.6L10.8,7.6z M90.3,6c-5.9-1.1-17.2-2.4-37.1-2.7C32,2.8,20.3,4,14.4,5.1
    C19.8,6.3,30.7,7.9,52.5,8C73.6,8.1,84.7,7,90.3,6z"/>
  <path d="M30.6,122.5c-9.2-4.1-13.9-9.3-14.2-9.7l-0.6-0.7L7,3.4l3.6-0.3l8.6,106.7c2.6,2.6,14.3,12.6,34.8,12.6
    c20.5,0,30.5-8.7,32.7-10.9L94.3,4.5L98,5.1l-7.7,108.8l-0.5,0.6c-0.4,0.5-10.8,12.6-35.7,12.6C46.3,127.3,38.4,125.7,30.6,122.5
    L30.6,122.5z"/>
  <g>
    <path d="M77.9,56.7c-3.8-14.1-18.2-22.4-32.3-18.6S23.3,56.4,27,70.5C30.4,82.8,42,90.9,54.7,90c1.6-0.1,3.2-0.4,4.7-0.9
      C73.4,85.2,81.7,70.9,77.9,56.7z M59.2,88.2c-1.5,0.4-3,0.6-4.6,0.7c-12.3,1-23.5-6.8-26.7-18.7c-3.6-13.6,4.3-27.5,17.9-31.1
      c1.5-0.4,3-0.6,4.5-0.8c12.3-1,23.5,6.8,26.7,18.7C80.7,70.6,72.7,84.5,59.2,88.2z"/>
    <path d="M44.2,89.6c-8.8-2.8-15.6-10-18-18.8C22.4,56.2,31,41.3,45.5,37.4s29.4,4.7,33.3,19.2c1.9,7,0.9,14.4-2.6,20.7
      c-3.5,6.3-9.5,10.8-16.5,12.7c-1.6,0.4-3.3,0.7-4.8,0.9C51.2,91,47.6,90.7,44.2,89.6L44.2,89.6z M60,40.2c-3.1-1-6.3-1.3-9.5-1.1
      c-1.5,0.1-3,0.4-4.4,0.7c-6.3,1.7-11.7,5.8-14.9,11.5C28,57,27.1,63.7,28.9,70c3.1,11.5,14,19.1,25.7,18.1c1.5-0.1,3-0.4,4.4-0.7
      c6.3-1.7,11.7-5.8,14.9-11.5c3.3-5.7,4.2-12.4,2.4-18.6C74.1,49.2,68,42.7,60,40.2L60,40.2L60,40.2z"/>
    <path d="M57.5,64.7l0.5,0c2.7-0.7,3.7-5,2.4-9.8c-0.6-2.1-1.5-4-2.9-5.6c-1.3-1.4-2.8-2-4.1-1.7c-1.9,0.5-3,2.8-3,5.9
      c-0.4-0.7-0.9-1.3-1.5-2c-1.3-1.4-2.8-2-4.1-1.7c-1.4,0.3-2.3,1.6-2.7,3.5c-0.3,2-0.3,4.2,0.3,6.3c1.2,4.4,4,7.5,6.5,7.3l0.5,0
      c1.9-0.5,3-2.8,3-5.9C53.8,63.4,55.7,64.8,57.5,64.7z M57.7,63.7c-1.1,0.3-2.3-0.4-3.4-1.7c0.4,0.1,0.7,0,1.1,0
      c1.5-0.5,2.2-2.1,1.7-3.5c-0.2-0.8-0.7-1.5-1.4-1.9l3.8-1C60.5,59.4,59.7,63.1,57.7,63.7L57.7,63.7L57.7,63.7z M53.6,48.4l0.3,0
      c1.1,0,2.1,0.5,2.8,1.5c1.2,1.3,2,3,2.6,4.7l-7.6,2.1C50.9,52.7,51.7,49,53.6,48.4L53.6,48.4L53.6,48.4z M43.1,53.5
      c0.4-1.5,1.1-2.6,2-2.9l0.3,0c1.1,0,2.1,0.5,2.8,1.5c1.2,1.3,2,3,2.6,4.7l-7.5,2.1C42.9,57.2,42.7,55.4,43.1,53.5L43.1,53.5
      L43.1,53.5z M49.2,65.9c-1.1,0.3-2.3-0.4-3.4-1.7c0.4,0.1,0.7,0,1.1,0c1.5-0.5,2.2-2.1,1.7-3.5c-0.2-0.8-0.7-1.5-1.4-1.9l3.8-1
      C52,61.7,51.2,65.5,49.2,65.9L49.2,65.9L49.2,65.9z"/>
    <polygon points="41.7,70.7 37.9,72.8 40.7,68.8 40.2,67.9 34.6,71 35.1,71.9 38.7,69.8 36.1,73.7 36.6,74.7 42.2,71.6 	"/>
    <path d="M44.9,73.9c-0.4-0.3-0.8-0.4-1.2-0.5c-0.5,0-1,0.2-1.4,0.4c-0.6,0.3-1,0.8-1.4,1.3c-0.5,0.7-0.9,1.6-0.8,2.5
      c0.1,0.7,0.4,1.3,1,1.7c0.5,0.5,1.2,0.6,1.9,0.4c0.9-0.3,1.5-0.8,2.1-1.7c0.6-0.6,0.9-1.6,0.8-2.4C45.9,74.9,45.6,74.2,44.9,73.9
      L44.9,73.9z M44.2,77.3c-0.3,0.5-0.7,0.9-1.3,1.1c-0.4,0.1-0.8,0.1-1.2-0.1c-0.3-0.3-0.6-0.7-0.5-1.1c0.1-0.6,0.2-1.1,0.6-1.5
      c0.3-0.5,0.7-0.9,1.3-1.1c0.4-0.1,0.8-0.1,1.2,0.2c0.3,0.3,0.6,0.7,0.6,1.1C44.8,76.3,44.7,76.9,44.2,77.3L44.2,77.3z"/>
    <path d="M51.3,76.4c-0.3-0.2-0.7-0.3-1.1-0.4l-2.2-0.3l-1,6.3l1,0.2l0.5-2.6l0.2,0c0.2,0,0.3,0.1,0.5,0.2c0.1,0.1,0.2,0.2,0.2,0.3
      c0.1,0.3,0.3,0.7,0.4,1.1l0.5,1.5l1.2,0.2L51,81.4c-0.1-0.4-0.3-0.8-0.4-1.2c-0.1-0.2-0.2-0.5-0.5-0.7c0.4,0,0.8-0.2,1.1-0.4
      c0.3-0.3,0.5-0.7,0.6-1.1c0.1-0.3,0-0.7-0.1-1C51.7,76.9,51.6,76.6,51.3,76.4L51.3,76.4z M50.8,78c0,0.2-0.1,0.3-0.2,0.5
      c-0.1,0.1-0.2,0.2-0.4,0.2c-0.3,0-0.6-0.1-0.9-0.1l-0.8-0.1l0.3-1.6l0.8,0.1c0.3,0.1,0.6,0.1,0.8,0.2c0.1,0.1,0.2,0.2,0.3,0.3
      C50.7,77.6,50.8,77.8,50.8,78L50.8,78L50.8,78z"/>
    <polygon points="56.5,75.4 56.8,79.9 54.6,75.9 53.2,76.5 55,82.5 56,82.3 54.5,77.4 57,82 58,81.6 57.5,76.5 59,81.3 59.9,81.1 
      58,74.9 	"/>
    <path d="M60.2,73.2l2.8,6.1l0.8-0.8l-0.7-1.4l1.6-1.4l1.4,0.8l0.8-0.8l-5.9-3.3L60.2,73.2L60.2,73.2z M63.8,75.2l-1,1L61.7,74
      L63.8,75.2L63.8,75.2z"/>
    <polygon points="68.1,71.5 63.4,69.4 62.9,70.3 68.7,73 70.2,69.5 69.3,69.1 	"/>
  </g>
</svg>
