<svg id="shipping-box" viewBox="0 0 165.91 189.6" xmlns="http://www.w3.org/2000/svg">
  <path d="M17.3,165.9c0,1.4,.7,2.8,1.9,3.5-.6-.1-1.1-.2-1.7-.2v2.8c.8,.1,1.5,.2,4.6,.8l10.3,1.7v-2.9l-9.1-1.5c-2.5-.4-3.5-1.2-3.5-2.7s1-1.6,2.6-1.4l9.9,1.7v-2.9l-10.5-1.8c-3.1-.5-4.5,.7-4.5,2.9Z"/>
  <path d="M25,150.8c-5-.8-7.6,.5-7.6,3.8s2.4,5.7,7.6,6.6,7.8-.5,7.8-3.8c.1-3.4-2.5-5.7-7.8-6.6Zm0,7.5c-3.5-.6-5.1-1.6-5-3.1,0-1.6,1.6-2,5.1-1.4s5.2,1.5,5.2,3.1-1.9,1.9-5.3,1.4Z"/>
  <path d="M17.6,147.2c1.1,.1,2.6,.4,5.1,.8l9.8,1.7v-2.9l-8-1.3c-2.8-.5-3.8-1.9-3.8-4.3l-3.4-.6c0,1.8,1.1,3.5,2.8,4.2-1.6-.3-2.2-.3-2.5-.3v2.7Z"/>
  <path d="M22.3,126.7l10.2,1.7v-2.8l-10.7-1.8c-3.4-.6-4.4,.9-4.4,2.8,0,1.5,.8,3,2.1,3.8-1.2,.1-2.2,1.2-2.1,2.4v.1c0,1.4,.7,2.7,1.9,3.4-.5-.1-1.1-.1-1.6-.2v2.7c.7,.1,1.6,.2,4.5,.8l10.5,1.8v-2.8l-9.3-1.6c-2.1-.4-3.3-1.1-3.2-2.6,0-1.2,.8-1.5,2.3-1.3l10.2,1.7v-2.9l-9.4-1.6c-1.9-.3-3.2-1-3.2-2.5-.1-1.1,.9-1.3,2.2-1.1Z"/>
  <path d="M31.1,116.2c.5,.1,1,.1,1.5,.1v-2.6c-.6,0-2.2-.3-3-.4l-7.9-1.3c-2.8-.5-4.2,.8-4.3,3.7-.2,2.7,1.7,5.1,4.4,5.4v-2.7c-1-.2-2.1-.6-2.1-2.2s1.2-1.5,2.1-1.4l1.8,.3v1.3c0,3.6,1.9,5.9,4.8,6.4,2.1,.4,4.4-.3,4.4-3,.2-1.5-.5-2.8-1.7-3.6Zm-2.9,3.7c-1.4-.2-2.4-1.2-2.4-3.3,0-.4,0-.8,.1-1.2l.6,.1c2.5,.4,3.9,1.1,3.9,2.9,0,1.3-1.1,1.6-2.2,1.5Z"/>
  <polygon points="32.6 107.8 12.1 104.4 12.1 107.2 32.6 110.7 32.6 107.8"/>
  <polygon points="41.6 176.1 56.5 178.6 56.5 175.7 41.6 173.2 41.6 176.1"/>
  <polygon points="35.9 175.1 39.2 175.6 39.2 172.8 35.9 172.2 35.9 175.1"/>
  <path d="M51.7,162.7v2.8c.8,.2,2.6,.7,2.6,2.4s-1.9,1.8-5.3,1.3c-3.2-.5-5.1-1.4-5.1-3s1.9-1.4,2.5-1.4v-2.9c-.8-.1-5-.7-5,3.8,0,3.9,3.6,5.7,7.6,6.4,4.4,.8,7.8,.3,7.8-3.6,0-4.6-4.1-5.6-5.1-5.8Z"/>
  <path d="M52.2,151v2.8c1.2,.2,2.1,1.3,2.2,2.5,0,2-2.3,1.9-4.5,1.5v-7.2c-.3-.1-.9-.2-1.4-.3-3.8-.6-7.1-.2-7.1,3.8,0,3.5,2.9,5.6,7.6,6.4,3.8,.6,7.8,.7,7.8-3.8s-4.2-5.5-4.6-5.7Zm-4.6,6.4c-1.1-.2-3.7-.8-3.7-2.9,0-1.9,1.9-1.8,3.7-1.5v4.4Z"/>
  <path d="M51.7,139.2v2.8c.8,.2,2.6,.7,2.6,2.4s-1.9,1.8-5.3,1.3c-3.2-.5-5.1-1.4-5.1-3s1.9-1.4,2.5-1.4v-2.9c-.8-.1-5-.7-5,3.8,0,3.9,3.6,5.7,7.6,6.4,4.4,.8,7.8,.3,7.8-3.6,.1-4.6-4-5.5-5.1-5.8Z"/>
  <path d="M41.7,135.4c1.1,.1,2.6,.4,5.1,.8l9.8,1.6v-2.9l-8-1.3c-2.8-.5-3.8-1.9-3.8-4.3l-3.4-.6c0,1.8,1.1,3.5,2.8,4.2-.8-.2-1.7-.3-2.5-.4v2.9Z"/>
  <path d="M52.2,119.5v2.8c1.2,.2,2.1,1.3,2.2,2.5,0,2-2.3,1.9-4.5,1.5v-7.2c-.5-.1-.9-.2-1.4-.3-3.8-.6-7.1-.2-7.1,3.8,0,3.5,2.9,5.6,7.6,6.4,3.7,.6,7.8,.7,7.8-3.8,.1-4.5-4.1-5.6-4.6-5.7Zm-4.5,6.3c-1-.2-3.7-.8-3.7-2.9,0-1.9,1.9-1.8,3.7-1.5v4.4Z"/>
  <path d="M46,116.2v-2.8c-1-.2-2.1-.6-2.1-2.2s1.2-1.5,2.1-1.4l1.7,.3v1.3c0,3.7,1.9,5.9,4.8,6.4,2.1,.4,4.4-.3,4.4-3,.1-1.4-.6-2.7-1.7-3.5,.5,.1,1,.1,1.5,.1v-2.6c-.6,0-2.2-.3-3-.4l-7.8-1.3c-2.8-.5-4.2,.8-4.2,3.7-.3,2.7,1.6,5.1,4.3,5.4Zm4-5.7l.6,.1c2.5,.4,3.9,1.1,3.9,2.9,0,1.3-1.1,1.6-2.2,1.5-1.4-.2-2.4-1.2-2.4-3.3,0-.4,0-.8,.1-1.2h0Z"/>
  <path d="M41.6,97.3c0,1.4,.7,2.7,1.9,3.5-.5-.1-1.1-.1-1.6-.2v2.7c.7,.1,1.6,.2,4.5,.8l10.4,1.8v-2.8l-9.2-1.5c-2.1-.3-3.3-1.1-3.3-2.6,0-1.2,.8-1.5,2.3-1.3l10.2,1.7v-2.9l-9.4-1.6c-1.9-.3-3.2-1-3.2-2.5,0-1.3,1-1.5,2.3-1.3l10.2,1.7v-2.8l-10.7-1.8c-3.4-.6-4.4,.9-4.4,2.8,0,1.5,.8,3,2.1,3.8-1.2,0-2.2,1-2.2,2.2,.1,.1,.1,.2,.1,.3Z"/>
  <rect x="131.6" y="124.9" width="4.5" height="52.4"/>
  <rect x="118.13" y="128.87" width="20.1" height="4.5" transform="translate(-55.17 129.04) rotate(-45)"/>
  <rect x="137.19" y="121.05" width="4.5" height="20.1" transform="translate(-51.86 137) rotate(-45)"/>
  <path d="M2.4,40.4c-.9,0-1.6-.5-2-1.3s-.3-1.7,.3-2.3L29.2,.8c.4-.5,1.1-.8,1.8-.8h99.9c.6,0,1.2,.3,1.6,.7l32.8,35.8c.6,.7,.8,1.6,.4,2.4-.3,.8-1.1,1.3-2,1.3l-161.3,.2h0ZM31.9,4.4L6.9,35.9l151.5-.1-28.7-31.3-97.8-.1Z"/>
  <path d="M165.8,189.6H0V37.9l.7-.7q.8-.8,82.3-.8c40.3,0,80.6,.1,80.6,.1h2.2V189.6h0ZM4.5,185.1H161.4V41.1c-51.1-.1-142-.2-156.9,0V185.1Z"/>
  <rect x="54.31" y="18.01" width="36.6" height="4.5" transform="translate(36.96 86.68) rotate(-77.36)"/>
  <rect x="91.79" y="2.01" width="4.5" height="36.7" transform="translate(-2.18 19.88) rotate(-11.93)"/>
  <path d="M100.2,82.8h-33.4V36.1h33.4v46.7Zm-28.9-4.5h24.5V40.5h-24.5v37.8Z"/>
  <path d="M100.2,189.5h-33.4v-42.8h33.4v42.8Zm-28.9-4.5h24.5v-33.8h-24.5v33.8Z"/>
</svg>
