<svg id="to-go-bag" viewBox="0 0 155.4 216.17" xmlns="http://www.w3.org/2000/svg">
  <path d="M66.2,120.57c-.4-20-11.7-34.5-25.1-32.1-13.4,2.3-24,20.5-23.6,40.6,.4,17.8,9.3,31.2,20.7,32.3,1.5,.1,2.9,.1,4.4-.2,13.5-2.4,24-20.6,23.6-40.6Zm-23.6,39.3c-1.4,.2-2.8,.3-4.2,.2-11-1.1-19.6-14-20-31.1-.4-19.3,9.7-36.9,22.7-39.1,1.4-.2,2.8-.3,4.2-.2,11,1.1,19.6,14,20,31.1,.4,19.3-9.7,36.8-22.7,39.1Z"/>
  <path d="M39.8,162.47c-.6,0-1.1,0-1.7-.1-12.2-1.2-21.3-15.2-21.7-33.4-.4-20.6,10.5-39.3,24.5-41.7,5.3-.9,10.7,.6,14.7,4.1,7.1,5.8,11.5,16.7,11.8,29.1h0c.4,20.6-10.5,39.3-24.5,41.7-1.1,.2-2.1,.3-3.1,.3Zm4-71.9c-.9,0-1.7,.1-2.5,.2-12.4,2.2-22.2,19.2-21.8,38,.3,16.4,8.3,29,19,30.1,1.3,.1,2.6,.1,3.9-.1h0c12.4-2.2,22.2-19.2,21.8-38-.4-16.4-8.3-29-19-30.1-.5,0-.9-.1-1.4-.1h0Z"/>
  <path d="M46.1,127.17h.5c2.5-.4,4.4-6.1,4.2-13,0-2.8-.5-5.6-1.4-8.2-.9-2.2-2.1-3.4-3.3-3.2-1.8,.3-3.3,3.4-3.9,7.6-.2-1-.5-2-.9-3-.9-2.2-2.1-3.4-3.3-3.2s-2.4,1.7-3.2,4.3c-.8,2.8-1.1,5.7-1,8.7,.1,6.4,2,11.2,4.3,11.4h.5c1.8-.3,3.3-3.3,3.9-7.6,.6,3.7,2,6.1,3.6,6.2Zm.5-1.3c-1,.2-2-1-2.7-3,.3,.2,.7,.2,1,.2,1.3-.2,2.4-2.2,2.3-4.5,0-1-.3-2-.9-2.9l3.7-.6c-.1,5.6-1.6,10.5-3.4,10.8h0Zm-.5-21.7h.3c.8,.1,1.6,1,2.2,2.6,.8,2.2,1.2,4.6,1.3,7l-7.2,1.2c0-5.6,1.5-10.5,3.4-10.8Zm-10.5,4.8c.6-2.1,1.5-3.3,2.4-3.5h.3c.8,.1,1.6,1,2.2,2.6,.8,2.2,1.2,4.6,1.3,7l-7.2,1.2c0-2.4,.3-4.9,1-7.3h0Zm2.9,18.3c-1,.2-2-1-2.7-3,.3,.2,.7,.2,1,.2,1.3-.2,2.4-2.2,2.3-4.5,0-1-.3-2-.9-2.9l3.7-.6c-.1,5.6-1.6,10.5-3.4,10.8h0Z"/>
  <polygon points="30.6 132.17 26.8 134.28 30.1 129.47 29.8 128.08 24.2 131.28 24.4 132.47 28.1 130.47 24.9 135.28 25.2 136.67 30.9 133.47 30.6 132.17"/>
  <path d="M32.9,137.17c-.2-.4-.6-.7-1.1-.9-.5-.1-.9,0-1.3,.3-.6,.4-1.1,.9-1.5,1.6-.7,.9-1.1,2.1-1.2,3.2-.1,.9,.1,1.8,.6,2.5,.3,.6,1,1,1.7,.9,.9-.3,1.7-.9,2.2-1.8,.7-.9,1.1-2,1.3-3.1,0-1-.2-1.9-.7-2.7Zm-1.3,4.7c-.3,.6-.8,1-1.4,1.3-.4,.1-.8-.1-1-.4-.3-.5-.4-1-.3-1.5,.1-.7,.4-1.5,.9-2.1,.3-.6,.8-1,1.4-1.3,.4-.1,.8,.1,1,.5,.3,.5,.4,1,.3,1.5-.2,.7-.5,1.4-.9,2Z"/>
  <path d="M38.1,141.97c-.3-.3-.6-.6-1-.8l-1.9-1-2.3,8.5,.9,.5,1-3.5,.2,.1c.2,.1,.3,.2,.4,.3s.1,.3,.2,.5c0,.2,.1,.7,.1,1.5l.2,2.2,1.1,.5-.1-1.9c0-.5-.1-1.1-.1-1.6-.1-.3-.2-.6-.3-1,.4,.1,.8,0,1.1-.3,.4-.4,.6-.9,.7-1.4s.2-1,.2-1.4c-.1-.5-.2-.8-.4-1.2Zm-.8,2.2c-.1,.2-.2,.4-.3,.6-.1,.1-.2,.2-.4,.2-.3-.1-.6-.2-.8-.3l-.7-.3,.6-2.1,.7,.4c.3,.1,.5,.3,.7,.4,.1,.1,.2,.3,.2,.5,0,.1,0,.3,0,.6h0Z"/>
  <polygon points="42.9 141.67 42.3 147.87 41.2 142.08 39.7 142.47 40.1 151.28 41 151.08 40.7 144.08 42 150.78 42.9 150.58 43.6 143.47 43.9 150.37 44.8 150.17 44.4 141.37 42.9 141.67"/>
  <path d="M46.7,139.58l1.2,9,.9-.9-.3-2,1.7-1.6,1,1.3,.9-.9-4.6-5.7-.8,.8Zm2.8,3.4l-1.2,1.1-.5-3.3,1.7,2.2Z"/>
  <polygon points="54.2 138.78 50.4 134.87 49.8 136.08 54.4 140.87 56.5 136.58 55.7 135.78 54.2 138.78"/>
  <polygon points="79.3 213.47 75.6 210.97 115.2 154.08 111.9 32.07 116.4 31.97 119.7 155.37 79.3 213.47"/>
  <rect x="132.92" y="146.83" width="4.5" height="47.3" transform="translate(-81.99 157.2) rotate(-48.09)"/>
  <path d="M79.2,216.17c-2.4,0-3.8-.1-4.1-.1l-2.2-.2,3.2-66c2.2-57.9,12.9-78.2,13.4-79l20.6-40L28,8.28l1.2-4.3L116.5,27.97l.3-.2,29,50c5.2,7.8,8,17,8,26.4l1.6,84.1-.8,.7c-29.5,24.9-63.7,27.2-75.4,27.2Zm-1.6-4.5c9,.1,43.9-1.1,73.2-25.3l-1.5-82.2c0-8.5-2.6-16.9-7.3-24l-27.7-47.7-20.9,40.5c-.1,.2-10.7,20.5-12.8,77.1l-3,61.6Z"/>
  <path d="M73.6,216.08C15.3,185.08,1.1,167.68,.5,166.97l-.5-.6v-.8C4.1,77.37,28.7,5.37,28.9,4.67l4.2,1.5c-.2,.7-24.4,71.6-28.6,158.7,3,3.3,19.8,20,71.1,47.3l-2,3.9Z"/>
  <path d="M114.3,31.18c-1,0-1.9-.7-2.2-1.7-.3-1.2,.4-2.4,1.6-2.7l6.8-1.8L45.8,4.47l-14.2,3.5c-1.2,.3-2.4-.4-2.7-1.6h0c-.3-1.2,.4-2.4,1.6-2.7h0L45.3,.08c.4-.1,.8-.1,1.1,0l83.2,22.8c1,.3,1.6,1.2,1.6,2.2s-.7,1.9-1.7,2.1l-14.8,3.9s-.2,.1-.4,.1Z"/>
</svg>
