<svg id="lab" viewBox="0 0 311.2 134.1" xmlns="http://www.w3.org/2000/svg">
  <path d="M284.2,8.7h-6.2c-.9,0-1.7,.8-1.7,1.7h0c0,.9,.8,1.7,1.7,1.7h6.2c.9,0,1.7-.8,1.7-1.7,.1-.9-.7-1.7-1.7-1.7,.1,0,0,0,0,0Z"/>
  <path d="M288.3,76.9c0-.9-.8-1.7-1.7-1.7h0l-169-1,.3-45.9c0-3.2-2.5-5.8-5.7-5.8l-36.2-.3c-3.2,0-5.8,2.5-5.8,5.7l-.3,54.6c0,1.2,.3,2.4,1,3.4l11.9,17.1c1.1,1.6,2.9,2.6,4.8,2.5l24.1,.1c3.2,0,5.8-2.5,5.8-5.7l.1-22.4,169.1,1c.9,0,1.6-.7,1.6-1.6Zm-174.3,23.1c0,1.3-1,2.3-2.2,2.3h-.1l-24.1-.1c-.8,0-1.5-.4-1.9-1l-11.9-17.2c-.2-.4-.4-.9-.4-1.3l.3-54.7c0-1.3,1-2.3,2.2-2.4h.1l36.1,.2c1.3,.1,2.3,1.1,2.3,2.4l-.4,71.8Z"/>
  <path d="M284.7,82.5l-13-.1c-2,0-3.7,1.6-3.7,3.6h0v7.1c0,2,1.6,3.6,3.5,3.6l13,.1c2-.1,3.6-1.7,3.7-3.6v-7.1c.1-1.9-1.5-3.5-3.5-3.6Zm.2,10.6c0,.1-.1,.2-.2,.2l-13-.1c-.1,0-.2-.1-.2-.2v-7c0-.1,.1-.2,.2-.2l13,.1c.1,0,.2,.1,.2,.2v7Z"/>
  <path d="M307.1,94.8h-6.6c-.4,0-.8,.1-1.2,.2l-3.6-81.4c-.6-7-6.4-12.4-13.4-12.4L95.3,0c-20.3-.2-39.5,9.1-52,25.1l-17,24.1c-1,1.4-1.8,2.9-2.5,4.5-1-1.4-2.6-2.3-4.4-2.4h-5.3c-1.9,0-3.5,1.5-3.5,3.4h0v4.4c0,1.9,1.5,3.4,3.4,3.4h5.3c.7,0,1.5-.2,2.1-.5l-8.9,38.2c-.6-.3-1.2-.5-1.9-.5H4.1c-2.2,0-4,1.7-4,3.9l-.1,10.6c0,2.2,1.7,4,3.9,4h6.5c2.2,0,4-1.7,4.1-3.9v-2.2c.5,.2,1,.3,1.5,.3h.8c2.5,.1,4.6-1.8,4.8-4.3,1.3-12.4,11.2-22.1,23.6-23.3,14.4-1.3,27.1,9.2,28.5,23.6,.2,2.5,2.3,4.4,4.8,4.4l118.3,.7c2.5,.1,4.6-1.8,4.8-4.3,1.4-13.4,12.7-23.6,26.2-23.5h.2c.9,0,23.1-1.6,35.5,24.4,.7,1.2,1.8,3.8,4.7,3.8l26.9,.2h.4c.4,0,.8-.1,1.1-.2v2.1c0,2.2,1.7,4,3.9,4h6.6c2.2,0,4-1.7,4-3.9l.1-17.4c-.1-2.1-1.9-3.9-4.1-3.9h0ZM45.9,27.2c.5-.6,1-1.2,1.4-1.7h5c1.4,0,2.6,1.2,2.6,2.6h0l-.1,20.9c0,1.4-1.2,2.6-2.6,2.6h0l-23.4-.2,.1-.2,17-24ZM19.4,59.2h-5.3v-4.4l5.3,.1c1.1,0,2,.9,2,2s-.9,2.2-2,2.3h0Zm-8.3,55.2c0,.2-.2,.5-.4,.5H4c-.2,0-.5-.2-.5-.4v-.1l.1-10.6c0-.3,.2-.5,.4-.5h6.6c.2,0,.5,.2,.5,.4v10.7Zm285-4.2c-.3,.3-.7,.5-1.2,.5l-26.9-.2c-.4,0-.8-.3-1.5-1.8-7-14.7-17.1-21.1-24.4-23.9-4.1-1.5-8.5-2.4-12.9-2.5-.5,0-1,0-1.4,.1-15.2-.1-28,11.4-29.5,26.5,0,.7-.6,1.3-1.3,1.2h0l-118.3-.7c-.7,0-1.4-.5-1.5-1.3-1.3-14-12.3-25.2-26.3-26.7-16.2-1.8-30.8,10-32.6,26.2v.1c-.1,.7-.7,1.2-1.5,1.2h-.8c-.5,0-.9-.2-1.2-.6-.1-.1-.1-.2-.2-.3v-1.4l11.4-48.6c.2-1.1,.6-2.1,1-3.2l25.2,.2c3.3,0,6-2.7,6.1-6l.1-20.9c0-3.3-2.6-6-5.9-6.1h-2c1.4-1.4,2.8-2.7,4.2-3.9l229.4,1.4c1,0,1.7-.8,1.8-1.8,0-.9-.8-1.7-1.7-1.7h0l-225-1.4c10.6-7.4,23.2-11.3,36.1-11.2l187,1.2c5.2,0,9.5,4,10,9.2l4.2,95.2v.4c-.1,.3-.2,.6-.4,.8Zm11.4,6c0,.3-.2,.5-.4,.5h-6.6c-.2,0-.5-.2-.5-.4v-.1l.1-17.4c0-.2,.2-.5,.4-.5h6.7c.2,0,.5,.2,.5,.4v.1l-.2,17.4Z"/>
  <path d="M55.4,60h-4.4c-1.6,.1-2.8,1.3-2.9,2.9l-.1,11.3c.1,1.6,1.3,2.8,2.9,2.9h4.4c1.6,0,2.9-1.3,2.9-2.9l.1-11.3c0-1.6-1.2-2.9-2.8-2.9h-.1Zm-.6,13.7h-3.4l.1-10.3h3.4l-.1,10.3Z"/>
  <path d="M242.8,47.7c0,.9,.4,1.8,1.1,2.4l.8,6.6,2.1,.7,1.1,10.4h7.8l1.2-10.4,2.1-.6,.9-6.5v-.2c-.2-.6-.6-1.1-1.2-1.3,.8-.5,1.4-1.3,1.5-2.3v-.3c.1-.2,.1-.3,.1-.5,0-.1,0-.3-.1-.4,0-.1-.1-.2-.1-.3s0-.1-.1-.2l-.1-.1c-.3-.5-.7-.9-1.1-1.3-.2-.1-.5-.2-.9-.4,1.5-.9,2-2.9,1.1-4.4-.4-.7-1-1.1-1.7-1.3l.3-.3,.6-.9c.6-1.6-.1-3.4-1.7-4h-.1l-3.1-1.2c-.9-.3-1.5-1.2-1.5-2.1,0-.3,.1-.6,.2-.9l.2-.4-.5-.1c-.3-.1-.6-.1-.9-.1-2.3,0-4.1,1.8-4.1,4v.1c0,1,.3,1.9,.9,2.6-.2,0-.5,.1-.7,.2l-.4,.2c-1,.5-1.6,1.6-1.6,2.7v.5c0,.2,.1,.3,.1,.5,0,.1,.1,.3,.2,.4l.1,.1,.1,.2,.1,.2c.1,.2,.3,.3,.4,.5-.2,0-.5,.1-.7,.2s-.3,.2-.5,.3l-.1,.1-.2,.2-.2,.2c-1.1,1.2-1.1,3.1,.1,4.2l.1,.1q.1,.1,.2,.1c-1,.5-1.8,1.6-1.8,2.8Zm11.2,17.9h-4.2l-.8-8.2h6l-1,8.2Zm3.8-14.9l-.6,4.3-1.4,.5h-7.4l-1.4-.5-.5-4.3h11.3Z"/>
  <path d="M145.7,50.2c0-3.5-.1-6.5-.1-8.9,.3,.9,.9,2.9,5.6,15.3h3.5l.1-19.5h-2.8v6c0,3.3,0,6.1,.1,8.5-.2-.9-.9-2.9-5.4-14.6h-3.6l-.1,19.5h2.7v-6.3Z"/>
  <path d="M163.4,57.1c4.4,0,6.3-3.2,6.3-10.2s-1.8-9.9-6.1-9.9c-3.9,0-6.2,2.9-6.2,9.8-.1,7.1,1.8,10.2,6,10.3Zm.2-17.6c2.2,0,3.1,2.4,3,7.3,0,5.1-1,7.7-3.1,7.7s-3-2.7-2.9-7.7c0-4.7,.8-7.3,3-7.3Z"/>
  <path d="M175.6,48.3h1.8c2.4,0,3,1.1,2.9,3.8v.7c-.1,1.4,0,2.8,.3,4.1h3c-.2-1.4-.3-2.7-.3-4.1v-.8c0-2.8-.6-4.2-2.3-4.9,1.1-.5,2.6-1.6,2.6-4.5,0-3.5-1.9-5.3-5.3-5.3h-5.7l-.1,19.6h3v-8.6h.1Zm.1-8.5h2.2c1.4-.1,2.7,.9,2.8,2.3v.6c0,2.1-.9,3.2-3.1,3.2h-1.9v-6.1Z"/>
  <path d="M189.7,49.8c0-3.4-.1-7.5-.1-9.8h.1c.6,3.7,1.9,11.2,3,17h2.8c1.4-6.2,2.8-13.4,3.5-17h.1c0,2.1-.1,5.8-.1,9.3v7.6h2.9l.1-19.5h-4.4c-1.3,5.4-2.8,12-3.2,14.5-.5-2.7-1.5-8.8-2.7-14.5h-4.5l-.2,19.5h2.8l-.1-7.1Z"/>
  <path d="M208,51.7h4.8l1.1,5.4h3.2l-4.6-19.5h-3.9l-4.7,19.4h3l1.1-5.3Zm2.3-11.4h.1c.3,1.8,.9,4.6,1.8,8.8h-3.6c.7-3.9,1.4-7.1,1.7-8.8Z"/>
  <polygon points="228.6 57.1 229 54.5 222.2 54.4 222.3 37.6 219.3 37.5 219.1 57 228.6 57.1"/>
  <path d="M227.8,89.8c-12.2-.1-22.2,9.8-22.3,22s9.8,22.2,22,22.3,22.2-9.8,22.3-22c0-12.2-9.8-22.2-22-22.3Zm-.3,39.4c-9.5-.1-17.1-7.8-17.1-17.3h0c0-9.5,7.8-17.1,17.2-17.1h0c9.5,.1,17.1,7.8,17.1,17.3,.1,9.5-7.7,17.1-17.2,17.1h0Z"/>
  <path d="M227.7,100.8c-6.2,0-11.3,5-11.3,11.2h0c0,6.2,5,11.3,11.2,11.3h0c6.2,0,11.3-5,11.3-11.2h0c0-6.2-5-11.3-11.2-11.3h0Z"/>
  <path d="M107.9,29.8l-27.6-.2c-1.4,0-2.6,1.1-2.6,2.6h0l-.1,18.6c0,1.4,1.1,2.6,2.6,2.6h0l27.5,.2c1.4,0,2.6-1.1,2.6-2.6h0l.1-18.6c0-1.4-1.1-2.5-2.5-2.6Zm-1.1,20.4l-25.8-.2,.1-16.9,25.8,.2-.1,16.9Z"/>
  <path d="M88.3,7.5h-6.2c-.9,0-1.7,.8-1.7,1.7h0c0,.9,.8,1.7,1.7,1.7h6.2c.9,0,1.7-.8,1.7-1.7h0c.1-1-.7-1.8-1.7-1.7q0-.1,0,0Z"/>
  <path d="M79.1,60.1c-.9,0-1.7,.8-1.7,1.7h0l-.1,13.7c0,.9,.8,1.7,1.7,1.7h0c1,0,1.7-.8,1.7-1.8v-.1l.1-13.6c0-.8-.7-1.6-1.7-1.6h0Z"/>
  <path d="M47.7,88.7c-12.2-.1-22.2,9.8-22.3,22-.1,12.2,9.8,22.2,22,22.3s22.2-9.8,22.3-22c.1-12.2-9.8-22.2-22-22.3Zm-.2,39.4c-9.5-.1-17.1-7.8-17.1-17.3,.1-9.5,7.8-17.1,17.3-17.1h0c9.5,.1,17.1,7.8,17.1,17.3-.1,9.5-7.9,17.1-17.3,17.1Z"/>
  <path d="M47.8,99.6c-6.2,0-11.2,4.9-11.3,11.1,0,6.2,5,11.3,11.2,11.3h0c6.2,0,11.3-5,11.3-11.2h0c0-6.1-5-11.1-11.2-11.2Z"/>
</svg>
