<svg id="van" viewBox="0 0 323.44 153.96" xmlns="http://www.w3.org/2000/svg">
  <path d="M310.51,106.76l-13-.1c-2,0-3.7,1.6-3.7,3.6h0v7.1c0,2,1.6,3.7,3.6,3.7h0l13,.1c2-.1,3.6-1.7,3.7-3.6v-7.1c0-2-1.6-3.7-3.6-3.7h0Zm.1,10.7c0,.1-.1,.2-.2,.2l-13.1-.1c-.1,0-.2-.1-.2-.2v-7.1c0-.1,.1-.2,.2-.2l13,.1c.1,0,.2,.1,.2,.2l.1,7.1Z"/>
  <path d="M15.21,100.86h-4.4c-1.6,.1-2.8,1.3-2.9,2.9l-.1,11.3c.1,1.6,1.3,2.8,2.9,2.9h4.4c1.6,0,2.9-1.3,2.9-2.9l.1-11.3c0-1.6-1.2-2.9-2.7-2.9h-.2Zm-.5,13.6h-3.4l.1-10.3h3.4l-.1,10.3Z"/>
  <path d="M301.31,76.66l-174.5-1.1,.4-64.8c.1-2.6-.9-5.2-2.9-7-2.7,1.1-5.4,2.3-8,3.6h4.9c1.3,.1,2.4,1.5,2.4,3.4l-.6,101.4c0,1.8-1,3.2-2.4,3.2l-24.9-.1c-.9-.1-1.6-.6-2-1.4l-12.2-24.2c-.2-.6-.4-1.2-.4-1.9l.2-27.7c-1.2,.3-2.6,.1-3.7-.6l-.2,28.1c0,1.6,.3,3.3,1.1,4.8l12.2,24.1c.8,2.1,2.7,3.4,4.9,3.6l24.9,.2c3.3,0,6-3.6,6-8.1l.2-31.6,174.7,1.1c.9,0,1.7-1.1,1.7-2.4s-.8-2.6-1.8-2.6Z"/>
  <path d="M85.81,70.96c0,.9,.8,1.7,1.7,1.7h0l13.7,.1c.9,0,1.7-.8,1.7-1.7h0c0-1-.8-1.7-1.8-1.7h-.1l-13.6-.1c-.8,0-1.6,.7-1.6,1.7h0Z"/>
  <path d="M55.51,109.66c-12.2-.1-22.2,9.8-22.3,22-.1,12.2,9.8,22.2,22,22.3s22.2-9.8,22.3-22c.1-12.3-9.8-22.3-22-22.3Zm-.2,39.3c-9.5-.1-17.1-7.8-17.1-17.3,.1-9.5,7.8-17.1,17.3-17.1,9.5,.1,17.1,7.8,17.1,17.3-.1,9.5-7.9,17.2-17.3,17.1h0Z"/>
  <path d="M55.61,120.56c-6.2,0-11.3,5-11.3,11.2h0c0,6.2,4.9,11.3,11.1,11.3h0c6.2,0,11.3-4.9,11.3-11.1h0c.1-6.3-4.9-11.4-11.1-11.4h0Z"/>
  <path d="M260.41,109.66c-12.2-.1-22.2,9.8-22.3,22-.1,12.2,9.8,22.2,22,22.3s22.2-9.8,22.3-22c0-12.3-9.8-22.3-22-22.3Zm-.3,39.3c-9.5-.1-17.1-7.8-17.1-17.3,.1-9.5,7.8-17.1,17.3-17.1,9.5,.1,17.1,7.8,17.1,17.3-.1,9.5-7.8,17.2-17.3,17.1Z"/>
  <path d="M260.51,120.56c-6.2,0-11.3,5-11.3,11.2h0c0,6.2,4.9,11.3,11.1,11.3h0c6.2,0,11.3-5,11.3-11.2h0c.1-6.2-4.9-11.3-11.1-11.3h0Z"/>
  <path d="M234.11,131.56l-152.8-.1v-2c0-.1-.1-10.5-7.3-17.5-4.7-4.5-11.4-6.7-19.9-6.5-7,.1-13.7,3.1-18.5,8.3-4.3,4.6-6.8,10.6-6.5,15.6l.1,2.1H1.71l-.3-1.6c-.2-1.2-4.8-29.8,3.8-40,1.6-1.9,3.8-3.2,6.3-3.6,1.1-7,7.2-18.3,24.4-20.4L106.81,7.86l.2-.1c11.3-4.4,23.4-6.6,35.5-6.5,19.5,0,146.2-.9,152.5-.9,4.1-.9,8.4-.1,11.9,2.3,4.7,3.4,7.2,9.6,7.6,18.6,.7,3.4,9.1,45.8,4.8,74.3,1.4,3.1,7.3,18.3,1.9,34.8l-.4,1.4h-34.6l-.3-1.7c-.2-1-4-23.9-24.5-24.3h-.8c-24.9,0-26.4,23.2-26.4,24.2l-.1,1.6Zm-149-4l145.4,.1c1-6.2,5.9-26.1,30.1-26.1h.9c20.3,.4,26.5,20.1,27.9,26h28.5c4.7-16.2-2.3-31-2.4-31.1l-.3-.6,.1-.6c4.6-28.3-4.6-73.1-4.7-73.6v-.3c-.3-7.8-2.3-13-5.9-15.7-2.6-1.8-5.8-2.4-8.8-1.7l-.2,.1h-.3c-1.3,0-132.9,.9-152.8,.9-11.5-.1-23,2-33.8,6.1L37.51,69.46l-.6,.1c-20.6,2.3-21.7,17.8-21.7,18.5l-.1,1.9h-1.9c-2,0-3.9,.8-5.1,2.4-5.8,6.9-4.5,26.4-3.2,35.2H25.01c.3-5.5,3.1-11.6,7.5-16.4,5.5-5.9,13.2-9.4,21.3-9.6,9.6-.3,17.3,2.3,22.8,7.7,6.5,6.2,8.1,14.5,8.5,18.3h0Z"/>
  <path d="M44.31,63.46l-.1-3.9c.4,0,40.3-1.2,51.1-1.8,1.6,0,3.1-.8,4.1-2,3.2-3.9,3-12.3,2.6-15.3v-.2l-.4-26.2,3.9-.1,.4,26.1c.2,1.3,1.2,12.4-3.5,18.1-1.7,2.1-4.2,3.4-6.9,3.4-10.8,.7-50.8,1.9-51.2,1.9Z"/>
  <path d="M43.11,64.36c-1.6,0-3.1-.2-4.7-.6-7.2-1.6-11.3-4-12.4-7.5-.6-2-.2-4.1,1-5.8,.3-1,1.1-1.9,2-2.4,4-2.3,13,.5,14.7,1.1l.5,.2,.4,.4c1.5,1.9,6.4,8.2,4,12.2-1.1,1.9-3.3,2.4-5.5,2.4Zm-12.7-11.6c-.6,.7-.8,1.6-.6,2.4,.3,.9,1.8,3.2,9.5,4.8,4.4,1,5.8,.3,6,0,.5-.9-1.1-4.3-3.3-7.2-3.6-1.1-9.2-2.2-11-1.2-.2,.1-.2,.2-.2,.3l-.1,.5-.3,.4Z"/>
  <path d="M265.51,44.66c0,1.1,.5,2.2,1.3,2.9l1,7.9,2.5,.8,1.3,12.3,9.2,.1,1.4-12.3,2.5-.8,1.1-7.7v-.2c-.2-.7-.8-1.3-1.5-1.5,1-.6,1.6-1.6,1.7-2.7v-.3c.1-.2,.1-.4,.1-.6s0-.3-.1-.5c0-.1-.1-.2-.1-.3s0-.1-.1-.2l-.1-.1c-.3-.6-.8-1.1-1.4-1.5-.2-.1-.6-.2-1-.5,1.8-1.1,2.4-3.4,1.3-5.2-.4-.8-1.2-1.3-2-1.6l.3-.3,.7-1c.8-1.9-.1-4-1.9-4.8h0l-3.6-1.4c-1.1-.4-1.8-1.4-1.8-2.5,0-.3,.1-.7,.2-1l.2-.4-.6-.1c-.3-.1-.7-.1-1-.1-2.7,0-4.9,2.1-4.9,4.8v.1c0,1.1,.4,2.2,1.1,3.1-.3,0-.5,.1-.8,.2l-.5,.2c-1.1,.6-1.8,1.9-1.8,3.2v.6c0,.2,.1,.3,.1,.6,0,.2,.1,.3,.2,.5l.1,.1,.1,.2,.1,.2c.1,.2,.3,.3,.5,.6-.3,0-.5,.1-.8,.2l-.6,.3-.1,.1-.2,.2-.2,.2c-1.4,1.5-1.3,3.7,.2,5.1h0q.1,.1,.2,.1c-1.3,.3-2.2,1.5-2.3,3Zm13.3,21.2h-5l-1-9.7h7l-1,9.7Zm4.4-17.6l-.7,5.1-1.7,.6h-8.8l-1.7-.6-.6-5.1h13.5Z"/>
  <path d="M150.41,47.66c0-4.2-.1-7.7-.2-10.6,.3,1,1.1,3.4,6.6,18.1h4.1l.1-23.1h-3.3v7.2c0,3.9,0,7.3,.2,10.1-.2-1-1.1-3.4-6.4-17.3h-4.2l-.1,23.1h3.2v-7.5Z"/>
  <path d="M171.41,55.76c5.2,0,7.4-3.8,7.5-12.1,0-8-2.1-11.7-7.2-11.8-4.7,0-7.3,3.5-7.3,11.7-.1,8.4,2.1,12.2,7,12.2Zm.3-20.8c2.6,0,3.6,2.9,3.6,8.7s-1.2,9.1-3.7,9.1-3.5-3.2-3.5-9.1c0-5.6,.9-8.7,3.6-8.7Z"/>
  <path d="M185.91,45.36h2.2c2.8,0,3.5,1.3,3.5,4.5v.8c-.1,1.6,0,3.3,.3,4.9h3.5c-.2-1.6-.3-3.3-.3-4.9v-.9c0-3.3-.8-5-2.7-5.8,1.4-.6,3.1-1.9,3.1-5.3,0-4.1-2.2-6.3-6.3-6.3h-6.7l-.1,23.2h3.5v-10.2Zm.1-10.1h2.6c2.3,0,3.3,1.4,3.3,3.4,0,2.5-1.1,3.8-3.7,3.7h-2.3l.1-7.1Z"/>
  <path d="M202.61,47.06c0-4-.1-8.9-.2-11.6h.1c.8,4.3,2.3,13.3,3.5,20.1h3.3c1.6-7.4,3.3-15.9,4.1-20.1h.1c0,2.5-.2,6.9-.2,11l-.1,9h3.4l.1-23.1h-5c-1.5,6.4-3.3,14.2-3.8,17.1-.5-3.2-1.8-10.5-3.2-17.2h-5.3l-.1,23.2h3.3v-8.4Z"/>
  <path d="M224.41,49.36h5.7l1.3,6.4h3.8l-5.4-23.1h-4.7l-5.6,23.1h3.5l1.4-6.4Zm2.6-13.5h.1c.3,2.2,1.1,5.5,2.1,10.4h-4.3c1-4.6,1.8-8.4,2.1-10.4Z"/>
  <polygon points="248.81 55.76 249.21 52.76 241.21 52.66 241.31 32.66 237.71 32.66 237.51 55.76 248.81 55.76"/>
</svg>
