<svg id="pints" viewBox="0 0 323.5 258.2">
	<g>
		<g>
			<g>
				<g>
					<path d="M65.6,156.4c-2.5,0-3.5-0.4-3.9-0.5l-0.9-1l0.6-1.8c0.3-0.3,8-6.6,41.7-16.8c33.7-10.1,42.6-9.1,43-9.1l1.5,1.3
						l-0.3,1.3c-0.4,0.6-5,6.2-41.4,17.5C81.8,154.9,70.6,156.4,65.6,156.4z M139.7,131c-5.9,0.8-16.8,2.9-35.8,8.6
						c-20,6-30.6,10.7-35.9,13.4c5.4-0.4,16.2-2.3,36.7-8.7C124.7,138,134.7,133.7,139.7,131z"/>
				</g>
				<g>
					<path d="M68.8,171.9c-0.9,0-1.4,0-1.5,0l-1.1-0.1L60.9,155l3.2-1l4.6,14.6c3.8,0,17.2-0.7,41.7-8.7s35.4-15.2,38.3-17.4l-4.4-13
						l3.2-1.1l5.2,15.2l-0.9,0.7c-0.4,0.4-10.4,8.9-40.4,18.7C86.6,171.1,73.1,171.9,68.8,171.9z"/>
				</g>
				<g>
					<path d="M113.8,243.3c-8.7,0-13.7-2.1-14.1-2.2l-0.6-0.3l-28.9-69.6l3.1-1.3l28.3,68.3c2.8,0.9,14.8,4.2,32.3-1.9
						c17.6-6,24.4-14.7,25.9-16.8l-14.5-73.4l3.3-0.6l14.7,74.6l-0.3,0.5c-0.3,0.5-6.8,11.5-28,18.8
						C126.7,242.4,119.5,243.3,113.8,243.3z"/>
				</g>
			</g>
			<g>
				<g>
					<path d="M143,183.2c-7.9-12.2-24.3-15.7-36.5-7.8s-15.7,24.3-7.8,36.5c7,10.9,20.7,14.8,32.3,10c1.4-0.6,2.9-1.3,4.2-2.2
						C147.4,211.8,150.9,195.4,143,183.2z M134.7,218.9c-1.3,0.9-2.7,1.6-4.1,2.1c-11.1,4.6-24.3,0.8-31.1-9.7
						c-7.6-11.8-4.2-27.6,7.5-35.2c1.3-0.9,2.7-1.6,4.1-2.1c11.1-4.6,24.3-0.8,31.1,9.7C149.8,195.5,146.4,211.3,134.7,218.9z"/>
					<path d="M120.9,224.8c-9,0-17.7-4.5-22.9-12.4c-8.2-12.6-4.5-29.5,8.1-37.6s29.5-4.5,37.6,8.1c3.9,6.1,5.3,13.4,3.8,20.5
						s-5.7,13.2-11.8,17.1c-1.4,0.9-2.8,1.7-4.4,2.3C127.9,224.1,124.3,224.8,120.9,224.8z M120.8,173c-3.2,0-6.4,0.6-9.4,1.9
						c-1.4,0.6-2.7,1.3-3.9,2.1c-5.5,3.6-9.3,9.1-10.7,15.5s-0.2,13,3.4,18.5c6.5,10,19.1,13.9,30.1,9.4c1.4-0.6,2.7-1.3,3.9-2.1
						c5.5-3.6,9.3-9.1,10.7-15.5s0.2-13-3.4-18.5C136.8,177,129,173,120.8,173z"/>
				</g>
				<g>
					<path d="M125.9,197c0.2-0.1,0.3-0.1,0.5-0.2c2.3-1.5,2-5.9-0.7-10.1c-1.3-1.9-2.8-3.5-4.5-4.4c-1.7-1-3.3-1.1-4.4-0.4
						c-1.7,1.1-1.9,3.7-1,6.6c-0.6-0.6-1.3-1.1-2-1.4c-1.7-1-3.3-1.1-4.4-0.4c-1.1,0.7-1.7,2.2-1.5,4.2c0.2,1.9,0.9,3.9,2.2,5.9
						c2.5,3.9,6.1,6,8.4,5c0.2-0.1,0.3-0.1,0.5-0.2c1.7-1.1,1.9-3.6,1-6.6C122,196.9,124.2,197.7,125.9,197z M125.8,196
						c-0.9,0.6-2.3,0.3-3.8-0.6c0.4,0,0.7-0.2,1.1-0.4c1.2-0.8,1.5-2.5,0.6-3.9c-0.5-0.7-1.2-1.2-1.9-1.4l3.3-2.1
						C127.2,191.1,127.5,194.9,125.8,196z M117.2,182.8c0.1-0.1,0.2-0.1,0.3-0.2c0.8-0.3,1.9-0.1,3.1,0.5c1.4,0.8,2.7,2.1,3.9,3.7
						l-6.6,4.3C115.9,187.6,115.5,183.9,117.2,182.8z M108.8,190.8c-0.1-1.6,0.2-2.8,1.1-3.3c0.1-0.1,0.2-0.1,0.3-0.2
						c0.8-0.3,1.9-0.1,3.1,0.5c1.4,0.8,2.7,2.1,3.9,3.7l-6.6,4.3C109.6,194.2,108.9,192.4,108.8,190.8z M118.4,200.8
						c-0.9,0.6-2.3,0.3-3.8-0.6c0.4,0,0.7-0.2,1.1-0.4c1.2-0.8,1.5-2.5,0.6-3.9c-0.5-0.7-1.2-1.2-1.9-1.4l3.3-2.1
						C119.8,195.9,120.1,199.7,118.4,200.8z"/>
				</g>
				<g>
					<polygon points="112.7,207.6 109.8,210.7 111.1,206.1 110.4,205.4 106,210.1 106.7,210.8 109.6,207.7 108.3,212.2 109.1,212.9 
						113.4,208.2 				"/>
				</g>
				<g>
					<path d="M116.8,209.5c-0.5-0.1-0.9-0.2-1.4,0c-0.4,0.1-0.8,0.4-1.2,0.8s-0.7,1-0.9,1.7c-0.3,1-0.3,1.9,0,2.6
						c0.3,0.6,0.8,1.1,1.5,1.3c0.7,0.2,1.4,0.1,1.9-0.2c0.7-0.4,1.2-1.1,1.5-2.2c0.3-1,0.3-1.9,0.1-2.5
						C118,210.2,117.5,209.8,116.8,209.5z M117.2,213.1c-0.2,0.7-0.5,1.2-0.9,1.5s-0.8,0.3-1.2,0.2c-0.4-0.1-0.7-0.4-0.8-0.8
						c-0.2-0.4-0.1-1,0.1-1.7s0.5-1.2,0.9-1.5s0.8-0.3,1.2-0.2c0.4,0.1,0.7,0.4,0.8,0.8C117.4,211.8,117.4,212.4,117.2,213.1z"/>
				</g>
				<g>
					<path d="M123.6,210.1c-0.3-0.1-0.7-0.1-1.2,0l-2.2,0.3l0.9,6.3l1.1-0.1l-0.4-2.6h0.2c0.2,0,0.4,0,0.5,0s0.2,0.1,0.3,0.2
						c0.1,0.1,0.3,0.4,0.7,0.9l0.9,1.3l1.3-0.2l-0.8-1.1c-0.3-0.5-0.6-0.8-0.8-1c-0.2-0.2-0.4-0.3-0.6-0.5c0.4-0.1,0.7-0.4,0.9-0.7
						c0.2-0.3,0.3-0.8,0.2-1.3c-0.1-0.4-0.2-0.7-0.4-1C124.1,210.3,123.8,210.2,123.6,210.1z M123.6,211.8c0,0.2,0,0.4-0.1,0.5
						s-0.2,0.2-0.3,0.3c-0.1,0.1-0.4,0.1-0.9,0.2l-0.8,0.1l-0.2-1.6l0.8-0.1c0.5-0.1,0.8-0.1,0.9-0.1s0.3,0.1,0.4,0.2
						C123.5,211.4,123.5,211.6,123.6,211.8z"/>
				</g>
				<g>
					<polygon points="128.2,207.6 129.9,211.7 126.6,208.6 125.4,209.6 129,214.8 129.9,214.2 127,210.1 130.7,213.6 131.5,213 
						129.5,208.3 132.4,212.4 133.2,211.9 129.5,206.6 				"/>
				</g>
				<g>
					<path d="M131.1,204.4l4.6,4.9l0.6-1l-1.1-1.1l1-1.8l1.5,0.3l0.6-1l-6.6-1.3L131.1,204.4z M135.1,205.2l-0.7,1.3l-1.7-1.8
						L135.1,205.2z"/>
				</g>
				<g>
					<polygon points="138.2,200.3 132.9,199.7 132.8,200.7 139.1,201.5 139.5,197.8 138.5,197.7 				"/>
				</g>
				<g>
					<path d="M133.4,196.3c0.2,0.1,0.5,0.1,0.7,0s0.4-0.1,0.6-0.3c0.2-0.1,0.3-0.3,0.4-0.5c0.1-0.2,0.1-0.4,0.1-0.5
						c0-0.2-0.1-0.3-0.3-0.5c-0.1-0.1-0.3-0.2-0.6-0.3s-0.5-0.1-0.7,0s-0.4,0.1-0.6,0.3c-0.2,0.1-0.3,0.3-0.4,0.5
						c-0.1,0.2-0.1,0.4-0.1,0.6c0,0.2,0.1,0.3,0.3,0.5C133,196.2,133.2,196.3,133.4,196.3z M132.8,195.5c0-0.1,0-0.3,0-0.4
						c0.1-0.1,0.2-0.3,0.3-0.4s0.3-0.2,0.5-0.2s0.4,0,0.6,0c0.2,0.1,0.3,0.1,0.4,0.2s0.2,0.2,0.2,0.4c0,0.1,0,0.3,0,0.4
						c-0.1,0.1-0.2,0.3-0.3,0.4c-0.1,0.1-0.3,0.2-0.5,0.2s-0.4,0-0.6,0s-0.3-0.1-0.4-0.2S132.9,195.6,132.8,195.5z"/>
				</g>
				<g>
					<path d="M134.6,195.4l-0.6,0.1v-0.1c0-0.1,0-0.1,0-0.2s0.1-0.1,0.3-0.2l0.2-0.1l-0.1-0.3l-0.3,0.2c-0.1,0.1-0.2,0.1-0.2,0.2
						s-0.1,0.1-0.1,0.1c0-0.1-0.1-0.1-0.2-0.2c-0.1,0-0.2-0.1-0.3,0s-0.2,0.1-0.2,0.1c-0.1,0.1-0.1,0.1-0.1,0.2c0,0,0,0.2,0.1,0.4
						l0.1,0.2L134.6,195.4L134.6,195.4z M133.8,195.4L133.8,195.4l-0.3,0.2v-0.1c0-0.1,0-0.2,0-0.2v-0.1l0.1-0.1h0.1
						c0,0,0.1,0,0.1,0.1C133.8,195.2,133.8,195.3,133.8,195.4z"/>
				</g>
			</g>
		</g>
		<g>
			<g>
				<g>
					<path d="M172.1,148.7c-2.3-0.9-3.1-1.6-3.4-1.9l-0.5-1.3l1.2-1.4c0.4-0.1,9.9-3.1,44.9,0.2s42.9,7.6,43.3,7.8l0.9,1.8l-0.8,1.1
						c-0.6,0.4-6.9,3.8-44.9,0.7C187.7,153.4,176.7,150.6,172.1,148.7z M250.3,153.1c-5.7-1.5-16.7-3.7-36.3-5.5
						c-20.8-2-32.4-1.7-38.3-1.1c5.2,1.6,15.8,4,37.3,5.8C233.7,153.9,244.7,153.7,250.3,153.1z"/>
				</g>
				<g>
					<path d="M169.2,164.2c-0.9-0.4-1.3-0.6-1.4-0.6l-1-0.5l1.5-17.6l3.3,0.3l-1.3,15.3c3.5,1.4,16.1,5.8,41.9,7.7
						c25.7,1.8,38.5-0.7,42.1-1.6l0.8-13.7l3.4,0.2l-0.9,16l-1.1,0.4c-0.5,0.2-12.9,4.3-44.4,2.1C186,170.2,173.2,165.8,169.2,164.2z
						"/>
				</g>
				<g>
					<path d="M184,247.3c-8-3.3-11.9-7.1-12.2-7.4l-0.5-0.5l-0.5-75.4h3.4l0.5,74c2.2,1.9,12.1,9.4,30.6,10.5
						c18.6,1,28.1-4.4,30.3-5.8l14.2-73.4l3.3,0.6l-14.5,74.7l-0.5,0.4c-0.4,0.3-10.6,8.1-33.1,6.8
						C196.3,251.3,189.3,249.4,184,247.3z"/>
				</g>
			</g>
			<g>
				<g>
					<path d="M233.7,202.7c-2.7-14.3-16.6-23.7-30.9-21c-14.3,2.7-23.7,16.6-21,30.9c2.4,12.7,13.6,21.5,26.1,21.5
						c1.6,0,3.2-0.2,4.8-0.5C227,230.8,236.4,217,233.7,202.7z M212.5,232.6c-1.5,0.3-3.1,0.4-4.6,0.5c-12,0.1-22.8-8.4-25.2-20.7
						c-2.6-13.8,6.4-27.1,20.2-29.7c1.5-0.3,3.1-0.4,4.6-0.4c12-0.1,22.8,8.4,25.2,20.7C235.4,216.7,226.3,230,212.5,232.6z"/>
					<path d="M197.5,232.9c-8.3-3.4-14.7-10.8-16.5-20.1c-2.8-14.7,6.9-29,21.6-31.8c14.8-2.8,29,6.9,31.8,21.6
						c1.4,7.1-0.1,14.4-4.2,20.4c-4.1,6-10.3,10.1-17.4,11.4c-1.6,0.3-3.3,0.5-4.9,0.5C204.3,234.9,200.7,234.2,197.5,232.9z
						M217,184.9c-2.9-1.2-6.1-1.8-9.4-1.8c-1.5,0-3,0.2-4.4,0.4c-6.4,1.2-12,4.9-15.7,10.3c-3.7,5.4-5.1,12-3.8,18.4
						c2.2,11.7,12.4,20.1,24.3,20c1.5,0,3-0.2,4.4-0.4c6.4-1.2,12-4.9,15.7-10.3s5.1-12,3.8-18.4C230.3,194.6,224.5,187.9,217,184.9z
						"/>
				</g>
				<g>
					<path d="M212.6,209c0.2,0,0.3,0,0.5,0c2.7-0.5,4.1-4.7,3.1-9.6c-0.4-2.3-1.3-4.3-2.5-5.8s-2.6-2.3-4-2c-1.9,0.4-3.2,2.6-3.4,5.7
						c-0.4-0.8-0.8-1.5-1.3-2.1c-1.2-1.5-2.6-2.3-4-2c-1.3,0.3-2.4,1.4-3,3.3c-0.5,1.8-0.6,4-0.2,6.3c0.9,4.6,3.4,7.8,5.9,7.8
						c0.2,0,0.3,0,0.5,0c1.9-0.4,3.2-2.6,3.4-5.7C209.1,207.4,210.8,209.1,212.6,209z M212.9,208.1c-1.1,0.2-2.3-0.6-3.3-2
						c0.4,0.1,0.7,0.1,1.1,0.1c1.4-0.3,2.3-1.8,2-3.4c-0.2-0.9-0.6-1.6-1.3-2l3.9-0.7C216,204.1,214.9,207.7,212.9,208.1z M210,192.6
						c0.1,0,0.2,0,0.3,0c0.9,0,1.8,0.6,2.7,1.7c1,1.2,1.8,3,2.2,4.9l-7.7,1.5C206.9,196.6,208,193,210,192.6z M199.1,196.9
						c0.5-1.5,1.3-2.5,2.2-2.7c0.1,0,0.2,0,0.3,0c0.9,0,1.8,0.6,2.7,1.7c1,1.2,1.8,3,2.2,4.9l-7.7,1.5
						C198.6,200.3,198.7,198.4,199.1,196.9z M204.3,209.7c-1.1,0.2-2.3-0.6-3.3-2c0.4,0.1,0.7,0.1,1.1,0.1c1.4-0.3,2.3-1.8,2-3.4
						c-0.2-0.9-0.6-1.6-1.3-2l3.9-0.7C207.4,205.7,206.3,209.3,204.3,209.7z"/>
				</g>
				<g>
					<polygon points="196.4,213.8 192.6,215.6 195.5,211.9 195.1,211 189.3,213.7 189.7,214.6 193.5,212.8 190.6,216.5 191,217.4 
						196.8,214.7 				"/>
				</g>
				<g>
					<path d="M199.5,217.2c-0.4-0.3-0.8-0.5-1.3-0.6s-0.9,0-1.4,0.3c-0.5,0.2-1,0.6-1.5,1.2c-0.7,0.8-1,1.6-1,2.4
						c0,0.7,0.3,1.3,0.9,1.8s1.2,0.7,1.9,0.5c0.8-0.1,1.5-0.6,2.2-1.5c0.7-0.8,1-1.6,1-2.3C200.3,218.3,200,217.7,199.5,217.2z
						M198.5,220.7c-0.5,0.6-0.9,0.9-1.4,1c-0.4,0.1-0.8,0-1.1-0.2c-0.3-0.3-0.5-0.6-0.4-1.1s0.3-1,0.7-1.5c0.5-0.6,0.9-0.9,1.4-1
						c0.4-0.1,0.8,0,1.2,0.3c0.3,0.3,0.5,0.6,0.5,1.1C199.2,219.6,199,220.1,198.5,220.7z"/>
				</g>
				<g>
					<path d="M205.6,220.3c-0.2-0.2-0.6-0.3-1.1-0.5l-2.2-0.5l-1.6,6.2l1,0.3l0.7-2.6h0.2c0.2,0.1,0.4,0.1,0.5,0.2s0.2,0.2,0.2,0.3
						c0.1,0.1,0.2,0.5,0.3,1.1l0.4,1.5l1.2,0.3l-0.3-1.4c-0.1-0.5-0.2-0.9-0.3-1.2c-0.1-0.2-0.2-0.4-0.4-0.7c0.4,0,0.8-0.1,1.1-0.3
						s0.5-0.6,0.6-1.1c0.1-0.4,0.1-0.7,0-1C205.9,220.7,205.8,220.4,205.6,220.3z M204.9,221.8c-0.1,0.2-0.1,0.4-0.2,0.5
						c-0.1,0.1-0.2,0.2-0.4,0.2c-0.1,0-0.4,0-0.9-0.2l-0.8-0.2l0.4-1.6l0.8,0.2c0.5,0.1,0.7,0.2,0.8,0.3c0.1,0.1,0.2,0.2,0.3,0.3
						C204.9,221.5,204.9,221.6,204.9,221.8z"/>
				</g>
				<g>
					<polygon points="210.8,219.7 210.9,224.1 208.9,220.1 207.4,220.4 208.9,226.7 209.8,226.5 208.7,221.6 210.8,226.2 211.8,226 
						211.7,220.8 212.8,225.8 213.8,225.6 212.4,219.3 				"/>
				</g>
				<g>
					<path d="M214.7,217.8l2.4,6.3l0.9-0.7l-0.6-1.4l1.6-1.3l1.3,0.9l0.9-0.7l-5.6-3.7L214.7,217.8z M218.1,220.1L217,221l-0.9-2.3
						L218.1,220.1z"/>
				</g>
				<g>
					<polygon points="222.7,216.7 218.1,214.2 217.6,215.1 223.2,218.1 225,214.9 224,214.4 				"/>
				</g>
				<g>
					<path d="M219.9,211.2c0.2,0.1,0.4,0.2,0.6,0.3c0.2,0,0.5,0,0.7,0c0.2-0.1,0.4-0.2,0.5-0.3c0.1-0.1,0.2-0.3,0.3-0.5
						s0-0.4-0.1-0.5c-0.1-0.2-0.2-0.3-0.4-0.5c-0.2-0.1-0.4-0.2-0.6-0.3c-0.2,0-0.5,0-0.7,0c-0.2,0.1-0.4,0.2-0.5,0.3
						c-0.1,0.1-0.2,0.3-0.3,0.5s0,0.4,0.1,0.5C219.5,210.9,219.7,211.1,219.9,211.2z M219.6,210.2c0-0.1,0.1-0.3,0.2-0.4
						c0.1-0.1,0.3-0.2,0.4-0.3s0.4-0.1,0.6,0c0.2,0,0.4,0.1,0.5,0.2s0.3,0.2,0.3,0.4c0.1,0.1,0.1,0.3,0.1,0.4s-0.1,0.3-0.2,0.4
						c-0.1,0.1-0.3,0.2-0.4,0.3c-0.2,0-0.4,0.1-0.6,0s-0.4-0.1-0.5-0.2s-0.3-0.2-0.3-0.4C219.6,210.5,219.6,210.4,219.6,210.2z"/>
				</g>
				<g>
					<path d="M221.3,210.8l-0.6-0.1v-0.1c0-0.1,0-0.1,0.1-0.1s0.1-0.1,0.3-0.1l0.2-0.1l0.1-0.3l-0.3,0.1c-0.1,0-0.2,0.1-0.3,0.1
						s-0.1,0.1-0.1,0.1c0-0.1,0-0.2-0.1-0.2c-0.1-0.1-0.1-0.1-0.3-0.1c-0.1,0-0.2,0-0.3,0s-0.1,0.1-0.1,0.2c0,0,0,0.2-0.1,0.4v0.2
						l1.4,0.2L221.3,210.8z M220.6,210.6L220.6,210.6h-0.4v-0.1c0-0.1,0-0.2,0.1-0.2c0,0,0-0.1,0.1-0.1h0.1h0.1c0,0,0,0.1,0.1,0.1
						C220.6,210.4,220.6,210.4,220.6,210.6z"/>
				</g>
			</g>
		</g>
		<g>
			<g>
				<g>
					<path d="M78.2,12.2c-2.3-0.9-3.1-1.7-3.4-2L74.3,9l1.2-1.4c0.4-0.1,9.9-3.2,44.9,0.2s42.9,7.6,43.3,7.8l0.9,1.8l-0.8,1.1
						c-0.6,0.4-6.9,3.8-44.9,0.7C93.8,16.9,82.9,14.1,78.2,12.2z M156.4,16.6c-5.7-1.5-16.7-3.7-36.3-5.5c-20.8-2-32.4-1.7-38.3-1.1
						c5.2,1.6,15.8,4,37.3,5.8C139.9,17.4,150.8,17.2,156.4,16.6z"/>
				</g>
				<g>
					<path d="M75.3,27.7c-0.9-0.3-1.3-0.6-1.4-0.6l-1-0.5L74.4,9l3.3,0.3l-1.3,15.3c3.5,1.4,16.1,5.8,41.9,7.7
						c25.7,1.8,38.5-0.7,42.1-1.6l0.8-13.7l3.4,0.2l-0.9,16l-1.1,0.4c-0.5,0.2-12.9,4.3-44.4,2.1C92.1,33.7,79.3,29.3,75.3,27.7z"/>
				</g>
				<g>
					<path d="M90.1,110.8c-8-3.3-11.9-7.1-12.2-7.4l-0.5-0.5l-0.5-75.4h3.3l0.5,74c2.2,1.9,12.1,9.4,30.6,10.5
						c18.6,1,28.2-4.4,30.3-5.8l14.2-73.4l3.3,0.6l-14.5,74.7l-0.5,0.4c-0.4,0.3-10.6,8.1-33.1,6.8
						C102.4,114.8,95.4,112.9,90.1,110.8z"/>
				</g>
			</g>
			<g>
				<g>
					<path d="M139.8,66.2c-2.7-14.3-16.6-23.7-30.8-21S85.3,61.8,88,76c2.4,12.7,13.6,21.5,26.1,21.5c1.6,0,3.2-0.2,4.8-0.5
						C133.1,94.3,142.5,80.5,139.8,66.2z M118.6,96.1c-1.5,0.3-3.1,0.4-4.6,0.4c-12,0.1-22.8-8.4-25.2-20.7
						C86.2,62,95.2,48.7,109,46.1c1.5-0.3,3.1-0.4,4.6-0.4c12-0.1,22.8,8.4,25.2,20.7C141.5,80.2,132.4,93.5,118.6,96.1z"/>
					<path d="M103.6,96.4C95.3,93,88.9,85.6,87.1,76.3c-2.8-14.7,6.9-29,21.7-31.8c14.8-2.8,29,6.9,31.8,21.7
						c1.4,7.1-0.1,14.4-4.2,20.4c-4.1,6-10.3,10.1-17.4,11.4c-1.6,0.3-3.3,0.5-4.9,0.5C110.4,98.4,106.8,97.7,103.6,96.4z
						M123.1,48.4c-2.9-1.2-6.1-1.8-9.4-1.8c-1.5,0-3,0.2-4.4,0.4c-6.4,1.2-12,4.9-15.7,10.3s-5.1,12-3.8,18.4
						c2.2,11.7,12.4,20.1,24.3,20c1.5,0,3-0.2,4.4-0.4c6.4-1.2,12-4.9,15.7-10.3s5.1-12,3.8-18.4C136.4,58.1,130.7,51.4,123.1,48.4z"
						/>
				</g>
				<g>
					<path d="M118.7,72.5c0.2,0,0.3,0,0.5-0.1c2.7-0.5,4.1-4.7,3.1-9.6c-0.4-2.3-1.3-4.3-2.5-5.8s-2.6-2.3-4-2
						c-1.9,0.4-3.2,2.7-3.4,5.7c-0.4-0.8-0.8-1.5-1.3-2.1c-1.2-1.5-2.6-2.3-4-2c-1.3,0.3-2.4,1.4-3,3.3c-0.5,1.8-0.6,4-0.2,6.3
						c0.9,4.6,3.4,7.8,5.9,7.8c0.2,0,0.3,0,0.5-0.1c1.9-0.4,3.2-2.7,3.4-5.7C115.2,70.9,117,72.5,118.7,72.5z M119.1,71.6
						c-1.1,0.2-2.3-0.6-3.3-2c0.3,0.1,0.7,0.1,1.1,0.1c1.4-0.3,2.3-1.8,2-3.4c-0.2-0.9-0.7-1.6-1.3-2l3.9-0.7
						C122.1,67.6,121.1,71.2,119.1,71.6z M116.1,56.1c0.1,0,0.2,0,0.3,0c0.9,0,1.8,0.6,2.7,1.7c1,1.2,1.8,3,2.2,4.9l-7.7,1.5
						C113,60.1,114.1,56.5,116.1,56.1z M105.2,60.4c0.5-1.5,1.3-2.5,2.2-2.7c0.1,0,0.2,0,0.3,0c0.9,0,1.8,0.6,2.7,1.7
						c1,1.2,1.8,3,2.2,4.9l-7.7,1.5C104.7,63.8,104.8,61.9,105.2,60.4z M110.4,73.2c-1.1,0.2-2.3-0.6-3.3-2c0.3,0.1,0.7,0.1,1.1,0.1
						c1.4-0.3,2.3-1.8,2-3.4c-0.2-0.9-0.7-1.6-1.3-2l3.9-0.7C113.5,69.2,112.4,72.8,110.4,73.2z"/>
				</g>
				<g>
					<polygon points="102.5,77.3 98.7,79.1 101.6,75.4 101.2,74.5 95.4,77.1 95.8,78 99.6,76.3 96.7,80 97.1,80.9 103,78.2 				"/>
				</g>
				<g>
					<path d="M105.6,80.7c-0.4-0.3-0.8-0.5-1.3-0.6s-0.9,0.1-1.4,0.3s-1,0.6-1.5,1.2c-0.7,0.8-1,1.6-1,2.4c0,0.7,0.3,1.3,0.9,1.8
						s1.2,0.7,1.9,0.5c0.8-0.1,1.5-0.6,2.2-1.5c0.7-0.8,1-1.6,1-2.3C106.4,81.8,106.1,81.2,105.6,80.7z M104.6,84.1
						c-0.5,0.6-0.9,0.9-1.4,1s-0.8,0-1.2-0.2c-0.3-0.3-0.5-0.6-0.4-1.1c0-0.5,0.3-1,0.7-1.6c0.5-0.6,0.9-0.9,1.4-1
						c0.4-0.1,0.8,0,1.2,0.3c0.3,0.3,0.5,0.6,0.5,1.1C105.3,83.1,105.1,83.6,104.6,84.1z"/>
				</g>
				<g>
					<path d="M111.7,83.7c-0.2-0.2-0.6-0.3-1.1-0.5l-2.2-0.6l-1.6,6.2l1,0.3l0.7-2.6l0.2,0.1c0.2,0.1,0.4,0.1,0.5,0.2
						c0.1,0.1,0.2,0.2,0.2,0.3c0.1,0.1,0.2,0.5,0.3,1.1l0.4,1.5l1.2,0.3l-0.3-1.4c-0.1-0.6-0.2-0.9-0.3-1.2c-0.1-0.2-0.2-0.4-0.4-0.7
						c0.4,0,0.8-0.1,1.1-0.3c0.3-0.2,0.5-0.6,0.7-1.1c0.1-0.4,0.1-0.7,0-1C112,84.2,111.9,83.9,111.7,83.7z M111,85.3
						c-0.1,0.2-0.1,0.4-0.2,0.5s-0.2,0.2-0.4,0.2c-0.1,0-0.4,0-0.9-0.2l-0.8-0.2l0.4-1.6l0.8,0.2c0.5,0.1,0.7,0.2,0.8,0.3
						c0.1,0.1,0.2,0.2,0.3,0.3C111.1,85,111.1,85.1,111,85.3z"/>
				</g>
				<g>
					<polygon points="116.9,83.2 117,87.6 115.1,83.6 113.5,83.9 115,90.2 115.9,90 114.8,85 116.9,89.7 117.9,89.5 117.8,84.4 
						119,89.3 119.9,89 118.5,82.8 				"/>
				</g>
				<g>
					<path d="M120.8,81.3l2.3,6.3l0.9-0.7l-0.6-1.4l1.7-1.3l1.3,0.9l0.9-0.7l-5.6-3.7L120.8,81.3z M124.2,83.6l-1.1,0.9l-0.9-2.3
						L124.2,83.6z"/>
				</g>
				<g>
					<polygon points="128.9,80.2 124.2,77.6 123.7,78.6 129.3,81.6 131.1,78.4 130.1,77.9 				"/>
				</g>
				<g>
					<path d="M126,74.7c0.2,0.1,0.4,0.2,0.6,0.3c0.2,0,0.5,0,0.7,0c0.2-0.1,0.4-0.2,0.5-0.3c0.1-0.1,0.2-0.3,0.3-0.5s0-0.4-0.1-0.5
						s-0.2-0.3-0.4-0.5c-0.2-0.1-0.4-0.2-0.6-0.3c-0.2,0-0.5,0-0.7,0c-0.2,0.1-0.4,0.2-0.5,0.3c-0.1,0.1-0.2,0.3-0.3,0.5
						s0,0.4,0.1,0.5C125.6,74.4,125.8,74.6,126,74.7z M125.7,73.7c0-0.1,0.1-0.3,0.2-0.4s0.3-0.2,0.4-0.3c0.2-0.1,0.4-0.1,0.6,0
						c0.2,0,0.4,0.1,0.5,0.2c0.2,0.1,0.3,0.2,0.3,0.4s0.1,0.3,0.1,0.4s-0.1,0.3-0.2,0.4s-0.3,0.2-0.4,0.3c-0.2,0.1-0.4,0.1-0.6,0
						c-0.2,0-0.4-0.1-0.5-0.2c-0.2-0.1-0.3-0.2-0.3-0.4S125.7,73.9,125.7,73.7z"/>
				</g>
				<g>
					<path d="M127.4,74.3l-0.6-0.1v-0.1c0-0.1,0-0.1,0.1-0.2c0.1,0,0.2-0.1,0.3-0.1l0.2-0.1l0.1-0.3l-0.3,0.1c-0.1,0-0.2,0.1-0.3,0.1
						c-0.1,0-0.1,0.1-0.1,0.1c0-0.1,0-0.2-0.1-0.2s-0.1-0.1-0.3-0.1s-0.2,0-0.3,0c-0.1,0-0.1,0.1-0.2,0.2c0,0,0,0.2-0.1,0.4v0.2
						l1.4,0.2L127.4,74.3z M126.7,74.1L126.7,74.1h-0.4V74c0-0.1,0-0.2,0.1-0.2c0,0,0-0.1,0.1-0.1h0.1c0,0,0.1,0,0.1,0.1
						c0,0,0,0.1,0.1,0.1C126.7,73.9,126.7,73.9,126.7,74.1z"/>
				</g>
			</g>
		</g>
		<g>
			<g>
				<g>
					<path d="M167.3,45.1c-2.5-0.1-3.5-0.5-3.8-0.7l-0.9-1l0.6-1.8c0.3-0.3,8.2-6.3,42.2-15.2s42.9-7.6,43.3-7.5l1.4,1.4l-0.3,1.3
						c-0.4,0.6-5.2,6-42,16C183.6,44.2,172.4,45.3,167.3,45.1z M242.3,22.4c-5.9,0.6-16.9,2.3-36,7.2c-20.2,5.3-31,9.5-36.4,12.1
						c5.4-0.2,16.2-1.7,37-7.4C227,28.9,237.2,24.9,242.3,22.4z"/>
				</g>
				<g>
					<path d="M169.9,60.6c-0.9,0-1.4-0.1-1.5-0.1l-1.1-0.1l-4.6-17l3.2-0.9l4,14.8c3.8,0.1,17.2,0,42-7.2c24.7-7.1,35.9-13.9,39-15.9
						l-4-13.1l3.2-1l4.6,15.3l-0.9,0.7c-0.4,0.3-10.7,8.5-41,17.2C187.8,60.5,174.2,60.8,169.9,60.6z"/>
				</g>
				<g>
					<path d="M212.3,133.7c-8.6-0.3-13.6-2.6-14-2.7l-0.6-0.3L171.4,60l3.1-1.2l25.8,69.3c2.7,1,14.6,4.7,32.4-0.7
						c17.8-5.4,25-13.8,26.5-15.8l-11.8-73.8l3.3-0.5l12,75.1l-0.3,0.5c-0.3,0.5-7.2,11.2-28.7,17.8
						C225.2,133.2,218,133.9,212.3,133.7z"/>
				</g>
			</g>
			<g>
				<g>
					<path d="M243.7,74.7c-7.4-12.5-23.7-16.6-36.2-9.2s-16.6,23.7-9.1,36.2c6.6,11.1,20.2,15.6,31.9,11.2c1.5-0.6,2.9-1.2,4.3-2.1
						C247,103.5,251.1,87.2,243.7,74.7z M234.1,110.1c-1.3,0.8-2.7,1.5-4.1,2c-11.3,4.2-24.3-0.1-30.7-10.8
						c-7.2-12.1-3.2-27.7,8.8-34.9c1.3-0.8,2.7-1.5,4.1-2c11.3-4.2,24.3,0.1,30.7,10.8C250.1,87.3,246.1,102.9,234.1,110.1z"/>
					<path d="M220,115.5c-9-0.3-17.5-5.1-22.4-13.3c-7.7-12.9-3.4-29.6,9.4-37.3c12.9-7.7,29.6-3.4,37.3,9.4c3.7,6.2,4.8,13.5,3,20.6
						c-1.8,7.1-6.2,13-12.4,16.7c-1.4,0.8-2.9,1.6-4.4,2.1C227.1,115.1,223.5,115.6,220,115.5z M221.9,63.7c-3.2-0.1-6.4,0.4-9.5,1.5
						c-1.4,0.5-2.7,1.2-4,1.9c-5.6,3.4-9.6,8.7-11.2,15.1c-1.6,6.4-0.6,13,2.7,18.6c6.1,10.2,18.6,14.6,29.7,10.4
						c1.4-0.5,2.7-1.2,4-1.9c5.6-3.4,9.6-8.7,11.2-15.1c1.6-6.4,0.6-13-2.7-18.6C237.8,68.3,230.1,64,221.9,63.7z"/>
				</g>
				<g>
					<path d="M226.1,87.9c0.2-0.1,0.3-0.1,0.5-0.2c2.3-1.4,2.2-5.8-0.3-10.1c-1.2-2-2.7-3.6-4.3-4.6c-1.7-1-3.3-1.2-4.4-0.5
						c-1.7,1-2.1,3.6-1.2,6.5c-0.6-0.6-1.3-1.1-1.9-1.5c-1.7-1-3.2-1.2-4.4-0.5s-1.8,2.2-1.6,4.1c0.1,1.9,0.8,4,2,5.9
						c2.4,4,5.9,6.2,8.2,5.3c0.2-0.1,0.3-0.1,0.5-0.2c1.7-1,2.1-3.6,1.2-6.5C222.2,87.6,224.4,88.5,226.1,87.9z M226,86.9
						c-1,0.6-2.3,0.2-3.8-0.7c0.4,0,0.7-0.1,1.1-0.3c1.2-0.7,1.6-2.5,0.8-3.9c-0.4-0.8-1.1-1.2-1.9-1.4l3.4-2
						C227.6,82.1,227.8,85.8,226,86.9z M218,73.3c0.1-0.1,0.2-0.1,0.3-0.2c0.8-0.3,1.9-0.1,3.1,0.7c1.4,0.8,2.7,2.2,3.7,3.8l-6.7,4
						C216.4,78.1,216.2,74.4,218,73.3z M209.2,81.1c-0.1-1.6,0.3-2.8,1.2-3.3c0.1-0.1,0.2-0.1,0.3-0.2c0.8-0.3,1.9-0.1,3.1,0.7
						c1.4,0.8,2.7,2.2,3.7,3.9l-6.7,4C209.9,84.5,209.3,82.7,209.2,81.1z M218.5,91.4c-0.9,0.6-2.3,0.2-3.8-0.7
						c0.4,0,0.7-0.1,1.1-0.3c1.2-0.7,1.6-2.5,0.8-3.9c-0.4-0.8-1.1-1.2-1.9-1.4l3.4-2C220,86.6,220.2,90.3,218.5,91.4z"/>
				</g>
				<g>
					<polygon points="212.5,98 209.5,101 211,96.4 210.3,95.7 205.7,100.2 206.4,100.9 209.4,98 207.9,102.4 208.7,103.2 213.2,98.7 
										"/>
				</g>
				<g>
					<path d="M216.5,100.1c-0.5-0.2-0.9-0.2-1.4-0.1s-0.8,0.4-1.2,0.7c-0.4,0.4-0.7,0.9-0.9,1.7c-0.4,1-0.4,1.9-0.1,2.6
						c0.2,0.6,0.7,1.1,1.4,1.3c0.7,0.3,1.4,0.2,1.9-0.1c0.7-0.4,1.2-1.1,1.6-2.1c0.4-1,0.4-1.9,0.1-2.6
						C217.7,100.8,217.2,100.3,216.5,100.1z M216.8,103.6c-0.3,0.7-0.6,1.2-0.9,1.4c-0.4,0.3-0.8,0.3-1.2,0.2s-0.7-0.4-0.8-0.9
						s-0.1-1,0.2-1.7s0.6-1.2,0.9-1.4c0.4-0.3,0.8-0.3,1.2-0.2s0.7,0.4,0.8,0.9S217,102.9,216.8,103.6z"/>
				</g>
				<g>
					<path d="M223.3,100.9c-0.3-0.1-0.7-0.1-1.2-0.1l-2.2,0.2l0.6,6.4l1.1-0.1l-0.3-2.7h0.2c0.2,0,0.4,0,0.5,0s0.2,0.1,0.3,0.2
						s0.3,0.4,0.7,0.9l0.9,1.3l1.3-0.1l-0.8-1.2c-0.3-0.5-0.5-0.8-0.7-1s-0.4-0.3-0.6-0.5c0.4-0.1,0.8-0.4,1-0.7s0.3-0.7,0.2-1.2
						c0-0.4-0.1-0.7-0.3-1C223.8,101.1,223.5,100.9,223.3,100.9z M223.2,102.6c0,0.2,0,0.4-0.1,0.5s-0.2,0.2-0.3,0.3
						s-0.4,0.1-0.9,0.2l-0.8,0.1l-0.2-1.6l0.8-0.1c0.5-0.1,0.8-0.1,0.9,0c0.1,0,0.3,0.1,0.4,0.2C223.1,102.2,223.2,102.4,223.2,102.6
						z"/>
				</g>
				<g>
					<polygon points="228,98.5 229.6,102.7 226.4,99.5 225.1,100.4 228.6,105.8 229.4,105.2 226.7,101 230.3,104.7 231.1,104.1 
						229.3,99.3 232,103.5 232.8,103 229.4,97.6 				"/>
				</g>
				<g>
					<path d="M231,95.4l4.4,5.1l0.6-1l-1-1.1l1.1-1.8l1.5,0.4l0.6-1l-6.6-1.6L231,95.4z M235,96.4l-0.8,1.2l-1.6-1.9L235,96.4z"/>
				</g>
				<g>
					<polygon points="238.2,91.6 233,90.8 232.9,91.9 239.1,92.8 239.7,89.2 238.6,89 				"/>
				</g>
				<g>
					<path d="M233.6,87.5c0.2,0.1,0.4,0.1,0.7,0c0.2,0,0.5-0.1,0.6-0.3s0.3-0.3,0.4-0.5s0.1-0.4,0.1-0.5s-0.1-0.3-0.3-0.5
						s-0.3-0.3-0.5-0.3c-0.2-0.1-0.4-0.1-0.7,0c-0.2,0-0.5,0.1-0.6,0.3c-0.2,0.1-0.3,0.3-0.4,0.5s-0.1,0.4-0.1,0.5s0.1,0.3,0.3,0.5
						C233.2,87.3,233.4,87.4,233.6,87.5z M233.1,86.6c0-0.1,0-0.3,0.1-0.4c0.1-0.1,0.2-0.3,0.3-0.4c0.1-0.1,0.3-0.2,0.5-0.2
						s0.4,0,0.6,0s0.3,0.1,0.4,0.3c0.1,0.1,0.2,0.2,0.2,0.4c0,0.1,0,0.3-0.1,0.4c-0.1,0.1-0.2,0.3-0.3,0.4c-0.1,0.1-0.3,0.2-0.5,0.2
						s-0.4,0-0.6,0s-0.3-0.1-0.4-0.3C233.2,86.9,233.1,86.8,233.1,86.6z"/>
				</g>
				<g>
					<path d="M234.9,86.6l-0.6,0.1v-0.1c0-0.1,0-0.1,0-0.2s0.1-0.1,0.3-0.2l0.2-0.1l-0.1-0.3l-0.3,0.2c-0.1,0.1-0.2,0.1-0.2,0.2
						l-0.1,0.1c0-0.1-0.1-0.1-0.2-0.2c-0.1,0-0.2-0.1-0.3,0c-0.1,0-0.2,0.1-0.2,0.1c-0.1,0.1-0.1,0.1-0.1,0.2c0,0,0,0.2,0.1,0.4V87
						l1.4-0.3L234.9,86.6z M234.1,86.6L234.1,86.6l-0.3,0.2v-0.1c0-0.1,0-0.2,0-0.2s0-0.1,0.1-0.1s0.1-0.1,0.1-0.1h0.1
						c0,0,0.1,0,0.1,0.1C234,86.4,234,86.5,234.1,86.6z"/>
				</g>
			</g>
		</g>
	</g>
</svg>
