<svg id="lab" viewBox="0 0 323.5 258.2">
	<g>
		<path d="M290.5,70.7l-6.2,0c-1,0-1.7,0.8-1.7,1.7c0,1,0.8,1.7,1.7,1.7l6.2,0c0.9,0,1.7-0.8,1.7-1.7
			C292.2,71.5,291.4,70.7,290.5,70.7z"/>
		<path d="M294.5,138.9c0-1-0.8-1.7-1.7-1.7l-169-1.1l0.3-45.9c0-3.2-2.6-5.8-5.7-5.8l-36.2-0.2c-3.2,0-5.8,2.6-5.8,5.7L76,144.5
			c0,1.3,0.4,2.4,1,3.4l11.9,17.1c1.1,1.6,2.9,2.5,4.8,2.5l24.1,0.1c3.2,0,5.8-2.6,5.8-5.7l0.1-22.4l169.1,1.1
			C293.8,140.6,294.5,139.8,294.5,138.9z M120.2,162c0,1.3-1,2.3-2.3,2.3l-24.1-0.1c-0.8,0-1.4-0.4-1.9-1L80,146
			c-0.2-0.4-0.4-0.9-0.4-1.4L79.9,90c0-1.3,1-2.4,2.3-2.4l36.1,0.1c1.3,0.1,2.3,1.1,2.3,2.4L120.2,162z"/>
		<path d="M291,144.5l-13-0.1c-2,0-3.7,1.6-3.7,3.6l0,7.1c0,2,1.6,3.7,3.6,3.7l13,0.1c2-0.1,3.6-1.7,3.7-3.6l0-7.1
			C294.6,146.2,293,144.5,291,144.5z M291.1,155.2c0,0.1-0.1,0.2-0.2,0.2l-13-0.1c-0.1,0-0.2-0.1-0.2-0.2l0-7.1
			c0-0.1,0.1-0.2,0.2-0.2l13,0.1c0.1,0,0.2,0.1,0.2,0.2L291.1,155.2z"/>
		<path d="M313.3,156.9l-6.6,0c-0.4,0-0.8,0.1-1.2,0.2l-3.6-81.4c-0.6-7-6.5-12.3-13.5-12.4l-187-1.2c-20.3-0.2-39.5,9.1-52,25.1
			l-17,24.1c-1,1.4-1.8,2.9-2.5,4.4c-1-1.4-2.5-2.3-4.4-2.4l-5.3,0c-1.9,0-3.5,1.5-3.5,3.4l0,4.4c0,1.9,1.5,3.5,3.4,3.5l5.3,0
			c0.8,0,1.5-0.2,2.2-0.5l-8.9,38.2c-0.6-0.3-1.2-0.5-1.9-0.6l-6.6,0c-2.2,0-4,1.8-4,3.9l-0.1,10.6c0,2.2,1.8,3.9,3.9,4l6.5,0
			c2.2,0,4-1.7,4.1-3.9l0-2.2c0.5,0.2,1,0.3,1.5,0.3H23c2.5,0,4.6-1.8,4.8-4.3c1.2-12.4,11.2-22.1,23.6-23.3
			c14.3-1.4,27.1,9.2,28.5,23.6c0.2,2.5,2.3,4.3,4.8,4.4l118.3,0.7c2.5,0,4.6-1.8,4.8-4.3c1.3-13.4,12.7-23.5,26.2-23.4h0.2
			c0.9,0,23.1-1.6,35.5,24.4c0.7,1.2,1.8,3.8,4.7,3.8l26.9,0.2c0.2,0,0.3,0,0.4,0c0.4,0,0.8-0.1,1.1-0.2l0,2.1c0,2.2,1.8,3.9,3.9,4
			l6.6,0c2.1,0,4-1.7,4-3.9l0.1-17.4C317.3,158.6,315.5,156.9,313.3,156.9z M52.2,89.2c0.5-0.6,1-1.1,1.4-1.7l5,0
			c1.4,0,2.6,1.2,2.6,2.6L61.1,111c0,1.4-1.2,2.6-2.6,2.6l-23.3-0.2c0-0.1,0.1-0.1,0.1-0.2L52.2,89.2z M25.6,121.2l-5.3,0l0-4.4
			l5.3,0.1c1.1,0,1.9,0.9,2,2S26.8,121.1,25.6,121.2z M17.3,176.4c0,0.3-0.2,0.5-0.5,0.5l-6.6,0c-0.3,0-0.5-0.2-0.5-0.5l0.1-10.6
			c0-0.3,0.2-0.5,0.5-0.5l6.6,0c0.3,0,0.5,0.2,0.5,0.5L17.3,176.4z M302.3,172.2c-0.3,0.3-0.7,0.5-1.2,0.5l-26.9-0.2
			c-0.4,0-0.8-0.3-1.5-1.8c-7-14.7-17.2-21.1-24.4-23.9c-4.1-1.6-8.5-2.4-12.9-2.5c-0.8,0-1.3,0-1.4,0.1
			c-15.2-0.1-28,11.3-29.5,26.5c0,0.8-0.7,1.2-1.4,1.2l-118.3-0.7c-0.7,0-1.3-0.6-1.4-1.3c-1.3-14-12.3-25.1-26.3-26.7
			c-16.3-1.7-30.9,10-32.6,26.3c-0.1,0.8-0.8,1.2-1.5,1.2h-0.8c-0.5,0-1-0.2-1.2-0.6c-0.1-0.1-0.1-0.2-0.2-0.3l0-1.4l11.4-48.7
			c0.3-1.1,0.6-2.1,1-3.2l25.2,0.2c3.4,0,6.1-2.8,6.1-6l0.1-20.9c0-3.4-2.7-6.1-6-6.1l-1.9,0c1.4-1.4,2.8-2.7,4.3-3.9l229.4,1.4
			c0.9,0,1.6-0.8,1.7-1.7c0-1-0.8-1.7-1.7-1.7l-225-1.4c10.5-7.3,23-11.3,36.1-11.2l187,1.2c5.2,0,9.6,4,10,9.2l4.2,95.3v0.4
			C302.6,171.8,302.5,172,302.3,172.2z M313.7,178.3c0,0.3-0.2,0.5-0.5,0.5l-6.6,0c-0.3,0-0.5-0.2-0.5-0.5l0.1-17.4
			c0-0.3,0.2-0.5,0.5-0.5l6.6,0c0.3,0,0.5,0.2,0.5,0.5L313.7,178.3z"/>
		<path d="M61.6,122.1l-4.4,0c-1.5,0-2.9,1.3-2.9,2.9l-0.1,11.3c0,1.5,1.3,2.9,2.9,2.9l4.4,0c1.6,0,2.9-1.3,2.9-2.9l0.1-11.3
			C64.4,123.3,63.2,122.1,61.6,122.1z M61,135.7l-3.4,0l0.1-10.3l3.4,0L61,135.7z"/>
		<path d="M249,109.7c0,1,0.4,1.8,1.1,2.4l0.8,6.6l2.1,0.7l1.1,10.4l7.8,0.1l1.2-10.4l2.1-0.7l0.9-6.5v-0.2
			c-0.2-0.6-0.6-1.1-1.2-1.3c0.9-0.5,1.4-1.3,1.5-2.3c0-0.1,0-0.2,0-0.3c0.1-0.3,0.1-0.4,0.1-0.5c0-0.1,0-0.3-0.1-0.4
			c0-0.1-0.1-0.2-0.1-0.3c0-0.1,0-0.1-0.1-0.2l-0.1-0.1c-0.3-0.5-0.7-1-1.1-1.3c-0.2-0.1-0.5-0.2-0.9-0.4c1.5-0.9,1.9-2.9,1.1-4.4
			c-0.4-0.7-1-1.2-1.7-1.4c0.1-0.1,0.2-0.2,0.3-0.3c0.2-0.3,0.4-0.6,0.6-0.9c0.7-1.5-0.1-3.4-1.7-4h-0.1l-3.1-1.2
			c-0.9-0.3-1.5-1.2-1.5-2.1c0-0.3,0.1-0.6,0.2-0.9l0.2-0.4l-0.5-0.1c-0.3-0.1-0.6-0.1-0.9-0.1c-2.3,0-4.1,1.8-4.2,4.1
			c0,1,0.3,1.9,0.9,2.6c-0.2,0-0.5,0.1-0.7,0.2l-0.4,0.2c-1,0.6-1.5,1.5-1.5,2.7c0,0.2,0,0.3,0,0.5s0.1,0.3,0.1,0.5
			c0,0.1,0.1,0.3,0.2,0.4l0.1,0.1l0.1,0.2l0.1,0.2c0.1,0.2,0.3,0.3,0.4,0.5c-0.2,0-0.5,0.1-0.7,0.2c-0.2,0.1-0.4,0.2-0.5,0.3
			l-0.1,0.1l-0.2,0.2c-0.1,0.1-0.2,0.2-0.2,0.2c-1.2,1.2-1.1,3.2,0.2,4.3c0.1,0.1,0.1,0.1,0.2,0.1C249.8,107.4,249,108.5,249,109.7z
			 M260.2,127.6l-4.2,0l-0.8-8.2l6,0L260.2,127.6z M264,112.8l-0.6,4.3l-1.4,0.5l-7.4-0.1l-1.4-0.5l-0.5-4.3L264,112.8z"/>
		<path d="M151.9,112.3c0-3.6-0.1-6.5-0.1-8.9c0.3,0.9,0.9,2.9,5.6,15.3l3.5,0l0.1-19.5l-2.8,0l0,6.1c0,3.3,0,6.1,0.1,8.5
			c-0.2-0.9-0.9-2.9-5.4-14.6l-3.6,0l-0.1,19.5l2.7,0L151.9,112.3z"/>
		<path d="M169.6,119.1c4.4,0,6.3-3.2,6.3-10.2c0-6.7-1.8-9.9-6.1-9.9c-3.9,0-6.2,2.9-6.2,9.9C163.6,115.9,165.4,119.1,169.6,119.1z
			 M169.8,101.5c2.2,0,3.1,2.4,3,7.3c0,5.1-1,7.7-3.1,7.7s-3-2.7-2.9-7.7C166.8,104.1,167.6,101.5,169.8,101.5z"/>
		<path d="M181.8,110.3l1.8,0c2.4,0,3,1.1,2.9,3.8v0.7c-0.1,1.3,0,2.8,0.3,4.1l3,0c-0.2-1.4-0.3-2.8-0.3-4.1V114
			c0-2.8-0.6-4.2-2.3-4.9c1.1-0.5,2.6-1.6,2.6-4.5c0-3.5-1.9-5.3-5.3-5.3l-5.7,0l-0.1,19.6l3,0L181.8,110.3z M181.9,101.8l2.2,0
			c1.9,0,2.8,1.2,2.8,2.9c0,2.1-0.9,3.2-3.1,3.1l-1.9,0L181.9,101.8z"/>
		<path d="M195.9,111.8c0-3.4-0.1-7.5-0.1-9.8h0.1c0.6,3.6,1.9,11.2,3,17l2.8,0c1.4-6.2,2.8-13.4,3.5-17h0.1c0,2.1-0.1,5.9-0.1,9.3
			l-0.1,7.6l2.9,0l0.1-19.5l-4.4,0c-1.3,5.4-2.8,12-3.2,14.5c-0.5-2.7-1.5-8.8-2.7-14.5l-4.5,0l-0.1,19.6l2.8,0L195.9,111.8z"/>
		<path d="M214.3,113.7l4.8,0l1.1,5.4l3.2,0l-4.6-19.5l-3.9,0l-4.7,19.5l3,0L214.3,113.7z M216.5,102.3h0.1c0.3,1.8,0.9,4.6,1.8,8.8
			l-3.6,0C215.5,107.2,216.2,104,216.5,102.3z"/>
		<polygon points="234.9,119.1 235.3,116.5 228.4,116.5 228.6,99.6 225.5,99.6 225.4,119.1 		"/>
		<path d="M237.8,103.7c0.6,0,0.7,0.2,0.7,0.7v0.2c0,0.2,0,0.5,0.1,0.8h0.7c-0.1-0.2-0.1-0.5-0.1-0.8v-0.2c0-0.6-0.1-0.9-0.4-1
			c0.3-0.2,0.5-0.5,0.5-0.9c0-0.1,0-0.1,0-0.2c0-0.6-0.6-1-1.1-0.9l-1.1,0l0,3.8h0.8V103.7z M237.8,102.1h0.4h0.1
			c0.3,0,0.4,0.2,0.4,0.5c0,0.4-0.2,0.6-0.6,0.6h-0.3L237.8,102.1z"/>
		<path d="M238.1,107.2c2.1,0,3.9-1.7,3.8-3.7c0-2-1.7-3.8-3.7-3.8c-2,0-3.8,1.7-3.8,3.7S236,107.2,238.1,107.2z M238.1,100.4
			c1.7,0,3.1,1.4,3.1,3.1s-1.4,3.1-3.1,3.1s-3.1-1.4-3.1-3.1C235.1,101.7,236.4,100.4,238.1,100.4z"/>
		<path d="M234,151.8c-12.3-0.1-22.2,9.8-22.3,22c-0.1,12.3,9.8,22.2,22,22.3c12.3,0.1,22.2-9.8,22.3-22
			C256.1,161.9,246.2,151.9,234,151.8z M233.7,191.2c-9.5-0.1-17.1-7.8-17.1-17.3s7.8-17.1,17.3-17.1s17.1,7.8,17.1,17.3
			C251,183.6,243.2,191.3,233.7,191.2z"/>
		<path d="M233.9,162.8c-6.2,0-11.3,5-11.3,11.2c0,6.2,5,11.3,11.2,11.3c6.2,0,11.3-5,11.3-11.2
			C245.1,167.9,240.1,162.8,233.9,162.8z"/>
		<path d="M114.1,91.9l-27.6-0.2c-1.4,0-2.6,1.1-2.6,2.6l-0.1,18.6c0,1.4,1.1,2.6,2.6,2.6l27.5,0.2c1.4,0,2.6-1.1,2.6-2.6l0.1-18.6
			C116.6,93,115.4,91.9,114.1,91.9z M113,112.2l-25.8-0.2l0.1-16.9l25.8,0.2L113,112.2z"/>
		<path d="M94.5,69.5l-6.2,0c-1,0-1.7,0.8-1.7,1.7c0,1,0.8,1.7,1.7,1.7l6.2,0c1,0,1.7-0.8,1.7-1.7C96.3,70.3,95.5,69.5,94.5,69.5z"
			/>
		<path d="M85.3,122.1c-1,0-1.7,0.8-1.7,1.7l-0.1,13.7c0,1,0.8,1.7,1.7,1.7c1,0,1.7-0.8,1.7-1.8l0.1-13.6
			C87,122.9,86.2,122.1,85.3,122.1z"/>
		<path d="M53.9,150.7c-12.3-0.1-22.2,9.8-22.3,22c-0.1,12.3,9.8,22.2,22,22.3c12.3,0.1,22.2-9.8,22.3-22
			C76,160.8,66.2,150.8,53.9,150.7z M53.7,190.1c-9.5-0.1-17.1-7.8-17.1-17.3c0.1-9.5,7.8-17.1,17.3-17.1S71,163.5,71,173
			C70.9,182.5,63.2,190.1,53.7,190.1z"/>
		<path d="M54,161.7c-6.2,0-11.3,5-11.3,11.2c0,6.2,5,11.3,11.2,11.3c6.2,0,11.3-5,11.3-11.2C65.2,166.8,60.2,161.7,54,161.7z"/>
	</g>
</svg>
