<svg id="van" viewBox="0 0 323.5 258.2">
	<g>
		<g>
			<g>
				<path d="M310.5,159l-13-0.1c-2,0-3.7,1.6-3.7,3.6l0,7.1c0,2,1.6,3.7,3.6,3.7l13,0.1c2-0.1,3.6-1.7,3.7-3.6l0-7.1
					C314.1,160.7,312.5,159,310.5,159z M310.6,169.7c0,0.1-0.1,0.2-0.2,0.2l-13-0.1c-0.1,0-0.2-0.1-0.2-0.2l0-7.1
					c0-0.1,0.1-0.2,0.2-0.2l13,0.1c0.1,0,0.2,0.1,0.2,0.2L310.6,169.7z"/>
			</g>
			<g>
				<path d="M15.2,153.1l-4.4,0c-1.5,0-2.9,1.3-2.9,2.9l-0.1,11.3c0,1.5,1.3,2.9,2.9,2.9l4.4,0c1.6,0,2.9-1.3,2.9-2.9l0.1-11.3
					C18.1,154.4,16.9,153.1,15.2,153.1z M14.7,166.7l-3.4,0l0.1-10.3l3.4,0L14.7,166.7z"/>
			</g>
			<g>
				<path d="M301.4,128.9l-174.6-1.1l0.4-64.8c0-3-1.1-5.6-2.9-7c-2.7,1.1-5.4,2.3-8,3.6l4.9,0c1.3,0.1,2.4,1.5,2.4,3.4L123,164.4
					c0,1.8-1,3.3-2.4,3.2l-24.9-0.2c-0.8,0-1.5-0.6-2-1.4l-12.2-24.2c-0.2-0.5-0.4-1.2-0.4-1.9l0.2-27.7c-1.2,0.3-2.6,0.1-3.7-0.6
					l-0.2,28.1c0,1.8,0.4,3.4,1.1,4.8l12.2,24.1c1.1,2.3,2.9,3.5,4.9,3.6l24.9,0.2c3.3,0,6-3.6,6-8.1l0.2-31.6l174.7,1.1
					c0.9,0,1.7-1.1,1.7-2.4C303.1,130,302.3,128.9,301.4,128.9z"/>
			</g>
			<g>
				<path d="M85.8,123.2c0,1,0.8,1.7,1.7,1.7l13.7,0.1c1,0,1.7-0.8,1.7-1.7c0-1-0.8-1.7-1.8-1.7l-13.6-0.1
					C86.6,121.5,85.8,122.3,85.8,123.2z"/>
			</g>
			<g>
				<g>
					<path d="M55.5,161.9c-12.2-0.1-22.2,9.8-22.3,22c-0.1,12.2,9.8,22.2,22,22.3c12.2,0.1,22.2-9.8,22.3-22
						C77.6,171.9,67.7,161.9,55.5,161.9z M55.3,201.2c-9.5-0.1-17.1-7.8-17.1-17.3c0.1-9.5,7.8-17.1,17.3-17.1
						c9.5,0.1,17.1,7.8,17.1,17.3C72.5,193.6,64.7,201.3,55.3,201.2z"/>
				</g>
				<g>
					<path d="M55.6,172.8c-6.2,0-11.3,5-11.3,11.2c0,6.2,5,11.3,11.2,11.3c6.2,0,11.3-5,11.3-11.2C66.8,177.9,61.8,172.8,55.6,172.8
						z"/>
				</g>
			</g>
			<g>
				<g>
					<path d="M260.4,161.9c-12.2-0.1-22.2,9.8-22.3,22s9.8,22.2,22,22.3c12.2,0.1,22.2-9.8,22.3-22
						C282.5,171.9,272.6,161.9,260.4,161.9z M260.1,201.2c-9.5-0.1-17.1-7.8-17.1-17.3c0.1-9.5,7.8-17.1,17.3-17.1
						c9.5,0.1,17.1,7.8,17.1,17.3C277.3,193.6,269.6,201.3,260.1,201.2z"/>
				</g>
				<g>
					<path d="M260.5,172.8c-6.2,0-11.3,5-11.3,11.2c0,6.2,5,11.3,11.2,11.3c6.2,0,11.3-5,11.3-11.2S266.7,172.8,260.5,172.8z"/>
				</g>
			</g>
			<g>
				<path d="M234.1,183.8l-152.8-0.1v-2c0-0.1-0.1-10.5-7.3-17.5c-4.7-4.6-11.4-6.7-19.9-6.5c-7.1,0.2-13.7,3.1-18.5,8.3
					c-4.3,4.6-6.8,10.6-6.5,15.6l0.1,2.1H1.7l-0.3-1.6c-0.2-1.2-4.8-29.8,3.8-40c1.7-2,3.8-3.3,6.3-3.6c1.1-7,7.2-18.3,24.4-20.4
					l70.9-58l0.3-0.1c0.6-0.3,15.2-6.6,35.5-6.6c19.5,0,146.2-0.8,152.5-0.9c1.3-0.3,6.9-1.3,11.9,2.3c4.6,3.4,7.2,9.6,7.6,18.6
					c0.7,3.4,9.1,45.8,4.8,74.3c1.4,3.1,7.3,18.3,1.9,34.8l-0.4,1.4h-34.6l-0.3-1.7c-0.2-1-4-23.9-24.5-24.3c-0.3,0-0.6,0-0.8,0
					c-24.9,0-26.4,23.2-26.4,24.2L234.1,183.8z M85.1,179.8l145.4,0.1c1-6.3,5.9-26.1,30.1-26.1c0.3,0,0.6,0,0.9,0
					c20.3,0.4,26.5,20.1,27.9,26h28.5c4.7-16.2-2.3-30.9-2.4-31.1l-0.3-0.6l0.1-0.6c4.6-28.3-4.6-73.1-4.7-73.6l0-0.3
					c-0.3-7.8-2.3-13-5.9-15.7c-4-2.9-8.8-1.7-8.9-1.7l-0.3,0.1h-0.3c-1.3,0-132.9,0.9-152.8,0.9c-18.1,0-31.8,5.3-33.7,6.1
					l-71.3,58.4l-0.6,0.1c-20.6,2.3-21.7,17.8-21.7,18.5l-0.1,1.9l-1.9,0l0,0c-2.1,0-3.7,0.8-5.1,2.4c-5.8,6.9-4.4,26.4-3.2,35.2
					h20.1c0.3-5.5,3.1-11.6,7.5-16.4c5.5-6,13.1-9.4,21.3-9.6c9.6-0.3,17.3,2.3,22.8,7.7C83.1,167.7,84.7,176,85.1,179.8z"/>
			</g>
			<g>
				<path d="M44.3,115.7l-0.1-3.9c0.4,0,40.3-1.2,51.1-1.8c1.7-0.1,3.1-0.8,4.1-2c3.2-3.9,3-12.3,2.6-15.3l0-0.2l-0.4-26.2l3.9-0.1
					l0.4,26.1c0.2,1.3,1.3,12.4-3.5,18.1c-1.8,2.1-4.1,3.3-6.9,3.4C84.7,114.5,44.7,115.7,44.3,115.7z"/>
			</g>
			<g>
				<path d="M43.2,116.6c-1.9,0-3.7-0.4-4.7-0.6c-7.2-1.6-11.3-4-12.4-7.5c-0.8-2.4,0.2-4.6,1-5.8c0.3-1,1-1.8,2-2.4
					c4-2.3,13,0.5,14.7,1.1l0.5,0.2l0.4,0.4c1.5,1.9,6.4,8.2,4,12.2C47.6,116.1,45.3,116.6,43.2,116.6z M30.4,105
					c-0.1,0.1-1,1.2-0.6,2.4c0.3,0.9,1.8,3.2,9.5,4.8c4.4,0.9,5.8,0.3,6,0c0.5-0.9-1.1-4.4-3.3-7.2c-3.6-1.1-9.2-2.2-11-1.2
					c-0.2,0.1-0.2,0.2-0.2,0.3l-0.1,0.5L30.4,105z"/>
			</g>
		</g>
		<g>
			<path d="M265.6,96.9c0,1.1,0.4,2.2,1.4,2.9l1,7.9l2.5,0.8l1.3,12.3l9.2,0.1l1.4-12.3l2.5-0.8l1.1-7.7v-0.2
				c-0.2-0.7-0.7-1.3-1.5-1.5c1-0.6,1.6-1.6,1.7-2.7c0-0.1,0-0.2,0-0.3c0.1-0.3,0.1-0.4,0.1-0.6c0-0.1,0-0.3-0.1-0.5
				c0-0.1-0.1-0.2-0.1-0.3s0-0.1-0.1-0.2l-0.1-0.1c-0.3-0.6-0.8-1.1-1.4-1.5c-0.2-0.1-0.6-0.2-1-0.5c1.8-1.1,2.3-3.4,1.3-5.2
				c-0.5-0.8-1.2-1.4-2-1.6c0.1-0.1,0.2-0.2,0.3-0.3c0.2-0.3,0.5-0.7,0.7-1c0.8-1.8-0.1-4-2-4.8h-0.1l-3.6-1.4
				c-1-0.3-1.8-1.4-1.8-2.5c0-0.3,0.1-0.7,0.2-1l0.2-0.4l-0.6-0.1c-0.3-0.1-0.7-0.1-1-0.1c-2.7,0-4.9,2.1-4.9,4.9
				c0,1.1,0.3,2.3,1.1,3.1c-0.2,0-0.6,0.1-0.8,0.2l-0.5,0.2c-1.1,0.7-1.8,1.8-1.8,3.2c0,0.2,0,0.3,0,0.6c0,0.2,0.1,0.3,0.1,0.6
				c0,0.1,0.1,0.3,0.2,0.5l0.1,0.1l0.1,0.2l0.1,0.2c0.1,0.2,0.3,0.3,0.5,0.6c-0.2,0-0.6,0.1-0.8,0.2c-0.2,0.1-0.5,0.2-0.6,0.3
				l-0.1,0.1l-0.2,0.2c-0.1,0.1-0.2,0.2-0.2,0.2c-1.4,1.5-1.3,3.8,0.2,5.1c0.1,0.1,0.1,0.1,0.2,0.1
				C266.5,94.2,265.6,95.5,265.6,96.9z M278.9,118.1l-5,0l-1-9.7l7,0L278.9,118.1z M283.3,100.5l-0.7,5.1l-1.7,0.6l-8.8-0.1
				l-1.7-0.6l-0.6-5.1L283.3,100.5z"/>
			<path d="M150.4,99.9c0-4.2-0.1-7.7-0.2-10.6c0.3,1,1.1,3.4,6.6,18.1l4.1,0l0.1-23.1l-3.3,0l0,7.2c0,3.9-0.1,7.3,0.2,10.1
				c-0.2-1-1.1-3.4-6.4-17.3l-4.2,0l-0.1,23.1l3.2,0L150.4,99.9z"/>
			<path d="M171.4,108c5.2,0,7.4-3.8,7.5-12.1c0.1-8-2.1-11.7-7.2-11.8c-4.7,0-7.3,3.5-7.4,11.7C164.3,104.2,166.5,108,171.4,108z
				 M171.7,87.2c2.6,0,3.6,2.9,3.6,8.7c0,6-1.2,9.1-3.7,9.1c-2.5,0-3.5-3.2-3.5-9.1C168.1,90.2,169.1,87.2,171.7,87.2z"/>
			<path d="M185.9,97.6l2.2,0c2.8,0,3.5,1.3,3.5,4.5v0.8c-0.1,1.6,0,3.3,0.3,4.9l3.5,0c-0.2-1.6-0.3-3.3-0.3-4.9l0-0.9
				c0-3.3-0.8-5-2.7-5.8c1.4-0.6,3.1-1.9,3.1-5.3c0-4.1-2.2-6.3-6.3-6.3l-6.7,0l-0.1,23.2l3.5,0L185.9,97.6z M186,87.5l2.6,0
				c2.3,0,3.3,1.4,3.3,3.4c0,2.5-1.1,3.8-3.7,3.7l-2.3,0L186,87.5z"/>
			<path d="M202.6,99.3c0-4-0.1-8.9-0.2-11.6h0.1c0.8,4.3,2.3,13.3,3.5,20.1l3.3,0c1.6-7.4,3.3-15.9,4.1-20.1h0.1
				c0,2.5-0.2,6.9-0.2,11l-0.1,9l3.4,0l0.1-23.1l-5.2,0c-1.5,6.4-3.3,14.2-3.8,17.1c-0.6-3.2-1.8-10.5-3.2-17.2l-5.4,0l-0.1,23.2
				l3.3,0L202.6,99.3z"/>
			<path d="M224.4,101.6l5.7,0l1.3,6.4l3.8,0L229.7,85l-4.7,0l-5.6,23.1l3.5,0L224.4,101.6z M227.1,88.1h0.1
				c0.3,2.2,1.1,5.5,2.1,10.4l-4.3,0C225.9,93.9,226.7,90.2,227.1,88.1z"/>
			<polygon points="248.8,108 249.2,105 241.2,104.9 241.3,84.9 237.6,84.9 237.5,108 			"/>
			<path d="M252.3,89.7c0.7,0,0.8,0.2,0.8,0.8v0.2c0,0.2,0,0.6,0.1,0.9h0.8c-0.1-0.2-0.1-0.6-0.1-0.9v-0.2c0-0.7-0.1-1-0.5-1.1
				c0.3-0.2,0.6-0.6,0.6-1c0-0.1,0-0.1,0-0.2c0-0.7-0.7-1.1-1.2-1l-1.4,0l0,4.6l0.9,0V89.7z M252.3,87.9h0.5h0.1
				c0.3,0,0.5,0.2,0.5,0.6c0,0.4-0.2,0.7-0.7,0.7h-0.3L252.3,87.9z"/>
			<path d="M252.6,94c2.5,0,4.6-2,4.5-4.4c0-2.4-2-4.4-4.4-4.5c-2.4,0-4.4,2-4.5,4.4C248.2,91.9,250.1,93.9,252.6,94z M252.7,85.9
				c2,0,3.6,1.6,3.6,3.7s-1.6,3.6-3.7,3.6c-2,0-3.6-1.6-3.6-3.7S250.6,85.9,252.7,85.9z"/>
		</g>
	</g>
</svg>
